<?xml version="1.0" encoding="UTF-8" standalone="no"?>
<!DOCTYPE svg PUBLIC "-//W3C//DTD SVG 1.1//EN"
 "http://www.w3.org/Graphics/SVG/1.1/DTD/svg11.dtd">
<!-- Generated by graphviz version 2.47.0 (20210316.0004)
 -->
<!-- Title: dependencies Pages: 1 -->
<svg width="971pt" height="284pt"
 viewBox="0.00 0.00 971.00 284.00" xmlns="http://www.w3.org/2000/svg" xmlns:xlink="http://www.w3.org/1999/xlink">
<g id="graph0" class="graph" transform="scale(1 1) rotate(0) translate(4 280)">
<title>dependencies</title>
<polygon fill="white" stroke="transparent" points="-4,4 -4,-280 967,-280 967,4 -4,4"/>
<text text-anchor="start" x="460.51" y="-42.4" font-family="Times-12" font-weight="bold" font-size="14.00">Legend</text>
<polygon fill="#ffffb3" stroke="transparent" points="247.5,-10 247.5,-30 267.5,-30 267.5,-10 247.5,-10"/>
<text text-anchor="start" x="271.13" y="-15.4" font-family="Times-12" font-size="14.00"> &#160;Declarations</text>
<polygon fill="#8dd3c7" stroke="transparent" points="360.5,-10 360.5,-30 380.5,-30 380.5,-10 360.5,-10"/>
<text text-anchor="start" x="384.23" y="-15.4" font-family="Times-12" font-size="14.00"> &#160;Module</text>
<polygon fill="#80b1d3" stroke="transparent" points="446.5,-10 446.5,-30 466.5,-30 466.5,-10 446.5,-10"/>
<text text-anchor="start" x="470.28" y="-15.4" font-family="Times-12" font-size="14.00"> &#160;Bootstrap</text>
<polygon fill="#fdb462" stroke="transparent" points="543.5,-10 543.5,-30 563.5,-30 563.5,-10 543.5,-10"/>
<text text-anchor="start" x="567.17" y="-15.4" font-family="Times-12" font-size="14.00"> &#160;Providers</text>
<polygon fill="#fb8072" stroke="transparent" points="639.5,-10 639.5,-30 659.5,-30 659.5,-10 639.5,-10"/>
<text text-anchor="start" x="663.23" y="-15.4" font-family="Times-12" font-size="14.00"> &#160;Exports</text>
<g id="clust1" class="cluster">
<title>cluster_UserModule</title>
<polygon fill="none" stroke="black" stroke-dasharray="1,5" points="8,-70 8,-268 955,-268 955,-70 8,-70"/>
</g>
<g id="clust3" class="cluster">
<title>cluster_UserModule_imports</title>
<polygon fill="none" stroke="black" points="833,-78 833,-130 947,-130 947,-78 833,-78"/>
</g>
<g id="clust6" class="cluster">
<title>cluster_UserModule_providers</title>
<polygon fill="none" stroke="black" points="16,-78 16,-130 825,-130 825,-78 16,-78"/>
</g>
<g id="clust4" class="cluster">
<title>cluster_UserModule_exports</title>
<polygon fill="none" stroke="black" points="434,-208 434,-260 658,-260 658,-208 434,-208"/>
</g>
<!-- TenantModule -->
<g id="node1" class="node">
<title>TenantModule</title>
<polygon fill="#8dd3c7" stroke="black" points="939.42,-122 936.42,-126 915.42,-126 912.42,-122 840.58,-122 840.58,-86 939.42,-86 939.42,-122"/>
<text text-anchor="middle" x="890" y="-99.8" font-family="Times,serif" font-size="14.00">TenantModule</text>
</g>
<!-- UserModule -->
<g id="node2" class="node">
<title>UserModule</title>
<polygon fill="#8dd3c7" stroke="black" points="587.98,-187 584.98,-191 563.98,-191 560.98,-187 502.02,-187 502.02,-151 587.98,-151 587.98,-187"/>
<text text-anchor="middle" x="545" y="-164.8" font-family="Times,serif" font-size="14.00">UserModule</text>
</g>
<!-- TenantModule&#45;&gt;UserModule -->
<g id="edge1" class="edge">
<title>TenantModule&#45;&gt;UserModule</title>
<path fill="none" stroke="black" d="M890,-122.28C890,-143.32 890,-175 890,-175 890,-175 598,-175 598,-175"/>
<polygon fill="black" stroke="black" points="598,-171.5 588,-175 598,-178.5 598,-171.5"/>
</g>
<!-- ImageService  -->
<g id="node3" class="node">
<title>ImageService </title>
<polygon fill="#fb8072" stroke="black" points="650.46,-252 553.54,-252 553.54,-216 650.46,-216 650.46,-252"/>
<text text-anchor="middle" x="602" y="-229.8" font-family="Times,serif" font-size="14.00">ImageService </text>
</g>
<!-- UserModule&#45;&gt;ImageService  -->
<g id="edge2" class="edge">
<title>UserModule&#45;&gt;ImageService </title>
<path fill="none" stroke="black" stroke-dasharray="5,2" d="M570.88,-187.11C570.88,-187.11 570.88,-205.99 570.88,-205.99"/>
<polygon fill="black" stroke="black" points="567.38,-205.99 570.88,-215.99 574.38,-205.99 567.38,-205.99"/>
</g>
<!-- UsersService  -->
<g id="node4" class="node">
<title>UsersService </title>
<polygon fill="#fb8072" stroke="black" points="535.85,-252 442.15,-252 442.15,-216 535.85,-216 535.85,-252"/>
<text text-anchor="middle" x="489" y="-229.8" font-family="Times,serif" font-size="14.00">UsersService </text>
</g>
<!-- UserModule&#45;&gt;UsersService  -->
<g id="edge3" class="edge">
<title>UserModule&#45;&gt;UsersService </title>
<path fill="none" stroke="black" stroke-dasharray="5,2" d="M518.84,-187.11C518.84,-187.11 518.84,-205.99 518.84,-205.99"/>
<polygon fill="black" stroke="black" points="515.34,-205.99 518.84,-215.99 522.34,-205.99 515.34,-205.99"/>
</g>
<!-- AuthService -->
<g id="node5" class="node">
<title>AuthService</title>
<ellipse fill="#fdb462" stroke="black" cx="758" cy="-104" rx="59.11" ry="18"/>
<text text-anchor="middle" x="758" y="-99.8" font-family="Times,serif" font-size="14.00">AuthService</text>
</g>
<!-- AuthService&#45;&gt;UserModule -->
<g id="edge4" class="edge">
<title>AuthService&#45;&gt;UserModule</title>
<path fill="none" stroke="black" d="M758,-122.02C758,-139.37 758,-163 758,-163 758,-163 598.1,-163 598.1,-163"/>
<polygon fill="black" stroke="black" points="598.1,-159.5 588.1,-163 598.1,-166.5 598.1,-159.5"/>
</g>
<!-- EmailService -->
<g id="node6" class="node">
<title>EmailService</title>
<ellipse fill="#fdb462" stroke="black" cx="618" cy="-104" rx="63.12" ry="18"/>
<text text-anchor="middle" x="618" y="-99.8" font-family="Times,serif" font-size="14.00">EmailService</text>
</g>
<!-- EmailService&#45;&gt;UserModule -->
<g id="edge5" class="edge">
<title>EmailService&#45;&gt;UserModule</title>
<path fill="none" stroke="black" d="M571.47,-116.23C571.47,-116.23 571.47,-140.68 571.47,-140.68"/>
<polygon fill="black" stroke="black" points="567.97,-140.68 571.47,-150.68 574.97,-140.68 567.97,-140.68"/>
</g>
<!-- ImageService -->
<g id="node7" class="node">
<title>ImageService</title>
<ellipse fill="#fdb462" stroke="black" cx="473" cy="-104" rx="64.24" ry="18"/>
<text text-anchor="middle" x="473" y="-99.8" font-family="Times,serif" font-size="14.00">ImageService</text>
</g>
<!-- ImageService&#45;&gt;UserModule -->
<g id="edge6" class="edge">
<title>ImageService&#45;&gt;UserModule</title>
<path fill="none" stroke="black" d="M519.57,-116.53C519.57,-116.53 519.57,-140.85 519.57,-140.85"/>
<polygon fill="black" stroke="black" points="516.07,-140.85 519.57,-150.85 523.07,-140.85 516.07,-140.85"/>
</g>
<!-- IndexManagementService -->
<g id="node8" class="node">
<title>IndexManagementService</title>
<ellipse fill="#fdb462" stroke="black" cx="278" cy="-104" rx="112.28" ry="18"/>
<text text-anchor="middle" x="278" y="-99.8" font-family="Times,serif" font-size="14.00">IndexManagementService</text>
</g>
<!-- IndexManagementService&#45;&gt;UserModule -->
<g id="edge7" class="edge">
<title>IndexManagementService&#45;&gt;UserModule</title>
<path fill="none" stroke="black" d="M278,-122.02C278,-139.37 278,-163 278,-163 278,-163 491.81,-163 491.81,-163"/>
<polygon fill="black" stroke="black" points="491.81,-166.5 501.81,-163 491.81,-159.5 491.81,-166.5"/>
</g>
<!-- UsersService -->
<g id="node9" class="node">
<title>UsersService</title>
<ellipse fill="#fdb462" stroke="black" cx="86" cy="-104" rx="61.95" ry="18"/>
<text text-anchor="middle" x="86" y="-99.8" font-family="Times,serif" font-size="14.00">UsersService</text>
</g>
<!-- UsersService&#45;&gt;UserModule -->
<g id="edge8" class="edge">
<title>UsersService&#45;&gt;UserModule</title>
<path fill="none" stroke="black" d="M86,-122.28C86,-143.32 86,-175 86,-175 86,-175 491.82,-175 491.82,-175"/>
<polygon fill="black" stroke="black" points="491.82,-178.5 501.82,-175 491.82,-171.5 491.82,-178.5"/>
</g>
</g>
</svg>
