<?xml version="1.0" encoding="UTF-8" standalone="no"?>
<!DOCTYPE svg PUBLIC "-//W3C//DTD SVG 1.1//EN"
 "http://www.w3.org/Graphics/SVG/1.1/DTD/svg11.dtd">
<!-- Generated by graphviz version 2.47.0 (20210316.0004)
 -->
<!-- Title: dependencies Pages: 1 -->
<svg width="1281pt" height="284pt"
 viewBox="0.00 0.00 1281.00 284.00" xmlns="http://www.w3.org/2000/svg" xmlns:xlink="http://www.w3.org/1999/xlink">
<g id="graph0" class="graph" transform="scale(1 1) rotate(0) translate(4 280)">
<title>dependencies</title>
<polygon fill="white" stroke="transparent" points="-4,4 -4,-280 1277,-280 1277,4 -4,4"/>
<text text-anchor="start" x="615.51" y="-42.4" font-family="Times-12" font-weight="bold" font-size="14.00">Legend</text>
<polygon fill="#ffffb3" stroke="transparent" points="402.5,-10 402.5,-30 422.5,-30 422.5,-10 402.5,-10"/>
<text text-anchor="start" x="426.13" y="-15.4" font-family="Times-12" font-size="14.00"> &#160;Declarations</text>
<polygon fill="#8dd3c7" stroke="transparent" points="515.5,-10 515.5,-30 535.5,-30 535.5,-10 515.5,-10"/>
<text text-anchor="start" x="539.23" y="-15.4" font-family="Times-12" font-size="14.00"> &#160;Module</text>
<polygon fill="#80b1d3" stroke="transparent" points="601.5,-10 601.5,-30 621.5,-30 621.5,-10 601.5,-10"/>
<text text-anchor="start" x="625.28" y="-15.4" font-family="Times-12" font-size="14.00"> &#160;Bootstrap</text>
<polygon fill="#fdb462" stroke="transparent" points="698.5,-10 698.5,-30 718.5,-30 718.5,-10 698.5,-10"/>
<text text-anchor="start" x="722.17" y="-15.4" font-family="Times-12" font-size="14.00"> &#160;Providers</text>
<polygon fill="#fb8072" stroke="transparent" points="794.5,-10 794.5,-30 814.5,-30 814.5,-10 794.5,-10"/>
<text text-anchor="start" x="818.23" y="-15.4" font-family="Times-12" font-size="14.00"> &#160;Exports</text>
<g id="clust1" class="cluster">
<title>cluster_AuthModule</title>
<polygon fill="none" stroke="black" stroke-dasharray="1,5" points="8,-70 8,-268 1265,-268 1265,-70 8,-70"/>
</g>
<g id="clust4" class="cluster">
<title>cluster_AuthModule_exports</title>
<polygon fill="none" stroke="black" points="718,-208 718,-260 824,-260 824,-208 718,-208"/>
</g>
<g id="clust3" class="cluster">
<title>cluster_AuthModule_imports</title>
<polygon fill="none" stroke="black" points="916,-78 916,-130 1257,-130 1257,-78 916,-78"/>
</g>
<g id="clust6" class="cluster">
<title>cluster_AuthModule_providers</title>
<polygon fill="none" stroke="black" points="16,-78 16,-130 908,-130 908,-78 16,-78"/>
</g>
<!-- ProjectsModule -->
<g id="node1" class="node">
<title>ProjectsModule</title>
<polygon fill="#8dd3c7" stroke="black" points="1249.15,-122 1246.15,-126 1225.15,-126 1222.15,-122 1144.85,-122 1144.85,-86 1249.15,-86 1249.15,-122"/>
<text text-anchor="middle" x="1197" y="-99.8" font-family="Times,serif" font-size="14.00">ProjectsModule</text>
</g>
<!-- AuthModule -->
<g id="node4" class="node">
<title>AuthModule</title>
<polygon fill="#8dd3c7" stroke="black" points="814.55,-187 811.55,-191 790.55,-191 787.55,-187 727.45,-187 727.45,-151 814.55,-151 814.55,-187"/>
<text text-anchor="middle" x="771" y="-164.8" font-family="Times,serif" font-size="14.00">AuthModule</text>
</g>
<!-- ProjectsModule&#45;&gt;AuthModule -->
<g id="edge1" class="edge">
<title>ProjectsModule&#45;&gt;AuthModule</title>
<path fill="none" stroke="black" d="M1197,-122.29C1197,-144.21 1197,-178 1197,-178 1197,-178 824.59,-178 824.59,-178"/>
<polygon fill="black" stroke="black" points="824.59,-174.5 814.59,-178 824.59,-181.5 824.59,-174.5"/>
</g>
<!-- TenantModule -->
<g id="node2" class="node">
<title>TenantModule</title>
<polygon fill="#8dd3c7" stroke="black" points="1126.42,-122 1123.42,-126 1102.42,-126 1099.42,-122 1027.58,-122 1027.58,-86 1126.42,-86 1126.42,-122"/>
<text text-anchor="middle" x="1077" y="-99.8" font-family="Times,serif" font-size="14.00">TenantModule</text>
</g>
<!-- TenantModule&#45;&gt;AuthModule -->
<g id="edge2" class="edge">
<title>TenantModule&#45;&gt;AuthModule</title>
<path fill="none" stroke="black" d="M1077,-122.11C1077,-141.34 1077,-169 1077,-169 1077,-169 824.84,-169 824.84,-169"/>
<polygon fill="black" stroke="black" points="824.84,-165.5 814.84,-169 824.84,-172.5 824.84,-165.5"/>
</g>
<!-- UserModule -->
<g id="node3" class="node">
<title>UserModule</title>
<polygon fill="#8dd3c7" stroke="black" points="1009.98,-122 1006.98,-126 985.98,-126 982.98,-122 924.02,-122 924.02,-86 1009.98,-86 1009.98,-122"/>
<text text-anchor="middle" x="967" y="-99.8" font-family="Times,serif" font-size="14.00">UserModule</text>
</g>
<!-- UserModule&#45;&gt;AuthModule -->
<g id="edge3" class="edge">
<title>UserModule&#45;&gt;AuthModule</title>
<path fill="none" stroke="black" d="M967,-122.03C967,-138.4 967,-160 967,-160 967,-160 824.99,-160 824.99,-160"/>
<polygon fill="black" stroke="black" points="824.99,-156.5 814.99,-160 824.99,-163.5 824.99,-156.5"/>
</g>
<!-- AuthService  -->
<g id="node5" class="node">
<title>AuthService </title>
<polygon fill="#fb8072" stroke="black" points="815.98,-252 726.02,-252 726.02,-216 815.98,-216 815.98,-252"/>
<text text-anchor="middle" x="771" y="-229.8" font-family="Times,serif" font-size="14.00">AuthService </text>
</g>
<!-- AuthModule&#45;&gt;AuthService  -->
<g id="edge4" class="edge">
<title>AuthModule&#45;&gt;AuthService </title>
<path fill="none" stroke="black" stroke-dasharray="5,2" d="M771,-187.11C771,-187.11 771,-205.99 771,-205.99"/>
<polygon fill="black" stroke="black" points="767.5,-205.99 771,-215.99 774.5,-205.99 767.5,-205.99"/>
</g>
<!-- AuthService -->
<g id="node6" class="node">
<title>AuthService</title>
<ellipse fill="#fdb462" stroke="black" cx="841" cy="-104" rx="59.11" ry="18"/>
<text text-anchor="middle" x="841" y="-99.8" font-family="Times,serif" font-size="14.00">AuthService</text>
</g>
<!-- AuthService&#45;&gt;AuthModule -->
<g id="edge5" class="edge">
<title>AuthService&#45;&gt;AuthModule</title>
<path fill="none" stroke="black" d="M798.23,-116.53C798.23,-116.53 798.23,-140.85 798.23,-140.85"/>
<polygon fill="black" stroke="black" points="794.73,-140.85 798.23,-150.85 801.73,-140.85 794.73,-140.85"/>
</g>
<!-- EmailService -->
<g id="node7" class="node">
<title>EmailService</title>
<ellipse fill="#fdb462" stroke="black" cx="701" cy="-104" rx="63.12" ry="18"/>
<text text-anchor="middle" x="701" y="-99.8" font-family="Times,serif" font-size="14.00">EmailService</text>
</g>
<!-- EmailService&#45;&gt;AuthModule -->
<g id="edge6" class="edge">
<title>EmailService&#45;&gt;AuthModule</title>
<path fill="none" stroke="black" d="M745.64,-116.84C745.64,-116.84 745.64,-140.52 745.64,-140.52"/>
<polygon fill="black" stroke="black" points="742.14,-140.52 745.64,-150.52 749.14,-140.52 742.14,-140.52"/>
</g>
<!-- FacebookAuthStrategy -->
<g id="node8" class="node">
<title>FacebookAuthStrategy</title>
<ellipse fill="#fdb462" stroke="black" cx="520" cy="-104" rx="100.14" ry="18"/>
<text text-anchor="middle" x="520" y="-99.8" font-family="Times,serif" font-size="14.00">FacebookAuthStrategy</text>
</g>
<!-- FacebookAuthStrategy&#45;&gt;AuthModule -->
<g id="edge7" class="edge">
<title>FacebookAuthStrategy&#45;&gt;AuthModule</title>
<path fill="none" stroke="black" d="M520,-122.03C520,-138.4 520,-160 520,-160 520,-160 717.28,-160 717.28,-160"/>
<polygon fill="black" stroke="black" points="717.28,-163.5 727.28,-160 717.28,-156.5 717.28,-163.5"/>
</g>
<!-- GithubAuthStrategy -->
<g id="node9" class="node">
<title>GithubAuthStrategy</title>
<ellipse fill="#fdb462" stroke="black" cx="313" cy="-104" rx="89.21" ry="18"/>
<text text-anchor="middle" x="313" y="-99.8" font-family="Times,serif" font-size="14.00">GithubAuthStrategy</text>
</g>
<!-- GithubAuthStrategy&#45;&gt;AuthModule -->
<g id="edge8" class="edge">
<title>GithubAuthStrategy&#45;&gt;AuthModule</title>
<path fill="none" stroke="black" d="M313,-122.11C313,-141.34 313,-169 313,-169 313,-169 717.09,-169 717.09,-169"/>
<polygon fill="black" stroke="black" points="717.09,-172.5 727.09,-169 717.08,-165.5 717.09,-172.5"/>
</g>
<!-- GoogleAuthStrategy -->
<g id="node10" class="node">
<title>GoogleAuthStrategy</title>
<ellipse fill="#fdb462" stroke="black" cx="115" cy="-104" rx="90.91" ry="18"/>
<text text-anchor="middle" x="115" y="-99.8" font-family="Times,serif" font-size="14.00">GoogleAuthStrategy</text>
</g>
<!-- GoogleAuthStrategy&#45;&gt;AuthModule -->
<g id="edge9" class="edge">
<title>GoogleAuthStrategy&#45;&gt;AuthModule</title>
<path fill="none" stroke="black" d="M115,-122.29C115,-144.21 115,-178 115,-178 115,-178 717.45,-178 717.45,-178"/>
<polygon fill="black" stroke="black" points="717.45,-181.5 727.45,-178 717.45,-174.5 717.45,-181.5"/>
</g>
</g>
</svg>
