<?xml version="1.0" encoding="UTF-8" standalone="no"?>
<!DOCTYPE svg PUBLIC "-//W3C//DTD SVG 1.1//EN"
 "http://www.w3.org/Graphics/SVG/1.1/DTD/svg11.dtd">
<!-- Generated by graphviz version 2.47.0 (20210316.0004)
 -->
<!-- Title: dependencies Pages: 1 -->
<svg width="1063pt" height="284pt"
 viewBox="0.00 0.00 1063.00 284.00" xmlns="http://www.w3.org/2000/svg" xmlns:xlink="http://www.w3.org/1999/xlink">
<g id="graph0" class="graph" transform="scale(1 1) rotate(0) translate(4 280)">
<title>dependencies</title>
<polygon fill="white" stroke="transparent" points="-4,4 -4,-280 1059,-280 1059,4 -4,4"/>
<text text-anchor="start" x="506.51" y="-42.4" font-family="Times-12" font-weight="bold" font-size="14.00">Legend</text>
<polygon fill="#ffffb3" stroke="transparent" points="293.5,-10 293.5,-30 313.5,-30 313.5,-10 293.5,-10"/>
<text text-anchor="start" x="317.13" y="-15.4" font-family="Times-12" font-size="14.00"> &#160;Declarations</text>
<polygon fill="#8dd3c7" stroke="transparent" points="406.5,-10 406.5,-30 426.5,-30 426.5,-10 406.5,-10"/>
<text text-anchor="start" x="430.23" y="-15.4" font-family="Times-12" font-size="14.00"> &#160;Module</text>
<polygon fill="#80b1d3" stroke="transparent" points="492.5,-10 492.5,-30 512.5,-30 512.5,-10 492.5,-10"/>
<text text-anchor="start" x="516.28" y="-15.4" font-family="Times-12" font-size="14.00"> &#160;Bootstrap</text>
<polygon fill="#fdb462" stroke="transparent" points="589.5,-10 589.5,-30 609.5,-30 609.5,-10 589.5,-10"/>
<text text-anchor="start" x="613.17" y="-15.4" font-family="Times-12" font-size="14.00"> &#160;Providers</text>
<polygon fill="#fb8072" stroke="transparent" points="685.5,-10 685.5,-30 705.5,-30 705.5,-10 685.5,-10"/>
<text text-anchor="start" x="709.23" y="-15.4" font-family="Times-12" font-size="14.00"> &#160;Exports</text>
<g id="clust1" class="cluster">
<title>cluster_AuthModule</title>
<polygon fill="none" stroke="black" stroke-dasharray="1,5" points="8,-70 8,-268 1047,-268 1047,-70 8,-70"/>
</g>
<g id="clust6" class="cluster">
<title>cluster_AuthModule_providers</title>
<polygon fill="none" stroke="black" points="365,-78 365,-130 1039,-130 1039,-78 365,-78"/>
</g>
<g id="clust3" class="cluster">
<title>cluster_AuthModule_imports</title>
<polygon fill="none" stroke="black" points="16,-78 16,-130 357,-130 357,-78 16,-78"/>
</g>
<g id="clust4" class="cluster">
<title>cluster_AuthModule_exports</title>
<polygon fill="none" stroke="black" points="411,-208 411,-260 517,-260 517,-208 411,-208"/>
</g>
<!-- ProjectsModule -->
<g id="node1" class="node">
<title>ProjectsModule</title>
<polygon fill="#8dd3c7" stroke="black" points="349.15,-122 346.15,-126 325.15,-126 322.15,-122 244.85,-122 244.85,-86 349.15,-86 349.15,-122"/>
<text text-anchor="middle" x="297" y="-99.8" font-family="Times,serif" font-size="14.00">ProjectsModule</text>
</g>
<!-- AuthModule -->
<g id="node4" class="node">
<title>AuthModule</title>
<polygon fill="#8dd3c7" stroke="black" points="507.55,-187 504.55,-191 483.55,-191 480.55,-187 420.45,-187 420.45,-151 507.55,-151 507.55,-187"/>
<text text-anchor="middle" x="464" y="-164.8" font-family="Times,serif" font-size="14.00">AuthModule</text>
</g>
<!-- ProjectsModule&#45;&gt;AuthModule -->
<g id="edge1" class="edge">
<title>ProjectsModule&#45;&gt;AuthModule</title>
<path fill="none" stroke="black" d="M297,-122.03C297,-138.4 297,-160 297,-160 297,-160 410.12,-160 410.12,-160"/>
<polygon fill="black" stroke="black" points="410.12,-163.5 420.12,-160 410.12,-156.5 410.12,-163.5"/>
</g>
<!-- TenantModule -->
<g id="node2" class="node">
<title>TenantModule</title>
<polygon fill="#8dd3c7" stroke="black" points="226.42,-122 223.42,-126 202.42,-126 199.42,-122 127.58,-122 127.58,-86 226.42,-86 226.42,-122"/>
<text text-anchor="middle" x="177" y="-99.8" font-family="Times,serif" font-size="14.00">TenantModule</text>
</g>
<!-- TenantModule&#45;&gt;AuthModule -->
<g id="edge2" class="edge">
<title>TenantModule&#45;&gt;AuthModule</title>
<path fill="none" stroke="black" d="M177,-122.11C177,-141.34 177,-169 177,-169 177,-169 410.41,-169 410.41,-169"/>
<polygon fill="black" stroke="black" points="410.41,-172.5 420.41,-169 410.41,-165.5 410.41,-172.5"/>
</g>
<!-- UserModule -->
<g id="node3" class="node">
<title>UserModule</title>
<polygon fill="#8dd3c7" stroke="black" points="109.98,-122 106.98,-126 85.98,-126 82.98,-122 24.02,-122 24.02,-86 109.98,-86 109.98,-122"/>
<text text-anchor="middle" x="67" y="-99.8" font-family="Times,serif" font-size="14.00">UserModule</text>
</g>
<!-- UserModule&#45;&gt;AuthModule -->
<g id="edge3" class="edge">
<title>UserModule&#45;&gt;AuthModule</title>
<path fill="none" stroke="black" d="M67,-122.29C67,-144.21 67,-178 67,-178 67,-178 410.38,-178 410.38,-178"/>
<polygon fill="black" stroke="black" points="410.38,-181.5 420.38,-178 410.38,-174.5 410.38,-181.5"/>
</g>
<!-- AuthService  -->
<g id="node5" class="node">
<title>AuthService </title>
<polygon fill="#fb8072" stroke="black" points="508.98,-252 419.02,-252 419.02,-216 508.98,-216 508.98,-252"/>
<text text-anchor="middle" x="464" y="-229.8" font-family="Times,serif" font-size="14.00">AuthService </text>
</g>
<!-- AuthModule&#45;&gt;AuthService  -->
<g id="edge4" class="edge">
<title>AuthModule&#45;&gt;AuthService </title>
<path fill="none" stroke="black" stroke-dasharray="5,2" d="M464,-187.11C464,-187.11 464,-205.99 464,-205.99"/>
<polygon fill="black" stroke="black" points="460.5,-205.99 464,-215.99 467.5,-205.99 460.5,-205.99"/>
</g>
<!-- AuthService -->
<g id="node6" class="node">
<title>AuthService</title>
<ellipse fill="#fdb462" stroke="black" cx="972" cy="-104" rx="59.11" ry="18"/>
<text text-anchor="middle" x="972" y="-99.8" font-family="Times,serif" font-size="14.00">AuthService</text>
</g>
<!-- AuthService&#45;&gt;AuthModule -->
<g id="edge5" class="edge">
<title>AuthService&#45;&gt;AuthModule</title>
<path fill="none" stroke="black" d="M972,-122.29C972,-144.21 972,-178 972,-178 972,-178 517.75,-178 517.75,-178"/>
<polygon fill="black" stroke="black" points="517.75,-174.5 507.75,-178 517.75,-181.5 517.75,-174.5"/>
</g>
<!-- EmailService -->
<g id="node7" class="node">
<title>EmailService</title>
<ellipse fill="#fdb462" stroke="black" cx="832" cy="-104" rx="63.12" ry="18"/>
<text text-anchor="middle" x="832" y="-99.8" font-family="Times,serif" font-size="14.00">EmailService</text>
</g>
<!-- EmailService&#45;&gt;AuthModule -->
<g id="edge6" class="edge">
<title>EmailService&#45;&gt;AuthModule</title>
<path fill="none" stroke="black" d="M832,-122.11C832,-141.34 832,-169 832,-169 832,-169 517.66,-169 517.66,-169"/>
<polygon fill="black" stroke="black" points="517.66,-165.5 507.66,-169 517.66,-172.5 517.66,-165.5"/>
</g>
<!-- GithubAuthStrategy -->
<g id="node8" class="node">
<title>GithubAuthStrategy</title>
<ellipse fill="#fdb462" stroke="black" cx="662" cy="-104" rx="89.21" ry="18"/>
<text text-anchor="middle" x="662" y="-99.8" font-family="Times,serif" font-size="14.00">GithubAuthStrategy</text>
</g>
<!-- GithubAuthStrategy&#45;&gt;AuthModule -->
<g id="edge7" class="edge">
<title>GithubAuthStrategy&#45;&gt;AuthModule</title>
<path fill="none" stroke="black" d="M662,-122.03C662,-138.4 662,-160 662,-160 662,-160 517.94,-160 517.94,-160"/>
<polygon fill="black" stroke="black" points="517.94,-156.5 507.94,-160 517.94,-163.5 517.94,-156.5"/>
</g>
<!-- GoogleAuthStrategy -->
<g id="node9" class="node">
<title>GoogleAuthStrategy</title>
<ellipse fill="#fdb462" stroke="black" cx="464" cy="-104" rx="90.91" ry="18"/>
<text text-anchor="middle" x="464" y="-99.8" font-family="Times,serif" font-size="14.00">GoogleAuthStrategy</text>
</g>
<!-- GoogleAuthStrategy&#45;&gt;AuthModule -->
<g id="edge8" class="edge">
<title>GoogleAuthStrategy&#45;&gt;AuthModule</title>
<path fill="none" stroke="black" d="M464,-122.11C464,-122.11 464,-140.99 464,-140.99"/>
<polygon fill="black" stroke="black" points="460.5,-140.99 464,-150.99 467.5,-140.99 460.5,-140.99"/>
</g>
</g>
</svg>
