<?xml version="1.0" encoding="UTF-8" standalone="no"?>
<!DOCTYPE svg PUBLIC "-//W3C//DTD SVG 1.1//EN"
 "http://www.w3.org/Graphics/SVG/1.1/DTD/svg11.dtd">
<!-- Generated by graphviz version 2.47.0 (20210316.0004)
 -->
<!-- Title: dependencies Pages: 1 -->
<svg width="624pt" height="284pt"
 viewBox="0.00 0.00 624.00 284.00" xmlns="http://www.w3.org/2000/svg" xmlns:xlink="http://www.w3.org/1999/xlink">
<g id="graph0" class="graph" transform="scale(1 1) rotate(0) translate(4 280)">
<title>dependencies</title>
<polygon fill="white" stroke="transparent" points="-4,4 -4,-280 620,-280 620,4 -4,4"/>
<text text-anchor="start" x="287.01" y="-42.4" font-family="Times-12" font-weight="bold" font-size="14.00">Legend</text>
<polygon fill="#ffffb3" stroke="transparent" points="74,-10 74,-30 94,-30 94,-10 74,-10"/>
<text text-anchor="start" x="97.63" y="-15.4" font-family="Times-12" font-size="14.00"> &#160;Declarations</text>
<polygon fill="#8dd3c7" stroke="transparent" points="187,-10 187,-30 207,-30 207,-10 187,-10"/>
<text text-anchor="start" x="210.73" y="-15.4" font-family="Times-12" font-size="14.00"> &#160;Module</text>
<polygon fill="#80b1d3" stroke="transparent" points="273,-10 273,-30 293,-30 293,-10 273,-10"/>
<text text-anchor="start" x="296.78" y="-15.4" font-family="Times-12" font-size="14.00"> &#160;Bootstrap</text>
<polygon fill="#fdb462" stroke="transparent" points="370,-10 370,-30 390,-30 390,-10 370,-10"/>
<text text-anchor="start" x="393.67" y="-15.4" font-family="Times-12" font-size="14.00"> &#160;Providers</text>
<polygon fill="#fb8072" stroke="transparent" points="466,-10 466,-30 486,-30 486,-10 466,-10"/>
<text text-anchor="start" x="489.73" y="-15.4" font-family="Times-12" font-size="14.00"> &#160;Exports</text>
<g id="clust1" class="cluster">
<title>cluster_TenantModule</title>
<polygon fill="none" stroke="black" stroke-dasharray="1,5" points="8,-70 8,-268 608,-268 608,-70 8,-70"/>
</g>
<g id="clust4" class="cluster">
<title>cluster_TenantModule_exports</title>
<polygon fill="none" stroke="black" points="200,-208 200,-260 436,-260 436,-208 200,-208"/>
</g>
<g id="clust6" class="cluster">
<title>cluster_TenantModule_providers</title>
<polygon fill="none" stroke="black" points="16,-78 16,-130 600,-130 600,-78 16,-78"/>
</g>
<!-- ImageService  -->
<g id="node1" class="node">
<title>ImageService </title>
<polygon fill="#fb8072" stroke="black" points="428.46,-252 331.54,-252 331.54,-216 428.46,-216 428.46,-252"/>
<text text-anchor="middle" x="380" y="-229.8" font-family="Times,serif" font-size="14.00">ImageService </text>
</g>
<!-- TenantsService  -->
<g id="node2" class="node">
<title>TenantsService </title>
<polygon fill="#fb8072" stroke="black" points="313.79,-252 208.21,-252 208.21,-216 313.79,-216 313.79,-252"/>
<text text-anchor="middle" x="261" y="-229.8" font-family="Times,serif" font-size="14.00">TenantsService </text>
</g>
<!-- TenantModule -->
<g id="node3" class="node">
<title>TenantModule</title>
<polygon fill="#8dd3c7" stroke="black" points="369.42,-187 366.42,-191 345.42,-191 342.42,-187 270.58,-187 270.58,-151 369.42,-151 369.42,-187"/>
<text text-anchor="middle" x="320" y="-164.8" font-family="Times,serif" font-size="14.00">TenantModule</text>
</g>
<!-- TenantModule&#45;&gt;ImageService  -->
<g id="edge1" class="edge">
<title>TenantModule&#45;&gt;ImageService </title>
<path fill="none" stroke="black" stroke-dasharray="5,2" d="M350.49,-187.11C350.49,-187.11 350.49,-205.99 350.49,-205.99"/>
<polygon fill="black" stroke="black" points="346.99,-205.99 350.49,-215.99 353.99,-205.99 346.99,-205.99"/>
</g>
<!-- TenantModule&#45;&gt;TenantsService  -->
<g id="edge2" class="edge">
<title>TenantModule&#45;&gt;TenantsService </title>
<path fill="none" stroke="black" stroke-dasharray="5,2" d="M292.34,-187.11C292.34,-187.11 292.34,-205.99 292.34,-205.99"/>
<polygon fill="black" stroke="black" points="288.84,-205.99 292.34,-215.99 295.84,-205.99 288.84,-205.99"/>
</g>
<!-- AuthService -->
<g id="node4" class="node">
<title>AuthService</title>
<ellipse fill="#fdb462" stroke="black" cx="533" cy="-104" rx="59.11" ry="18"/>
<text text-anchor="middle" x="533" y="-99.8" font-family="Times,serif" font-size="14.00">AuthService</text>
</g>
<!-- AuthService&#45;&gt;TenantModule -->
<g id="edge3" class="edge">
<title>AuthService&#45;&gt;TenantModule</title>
<path fill="none" stroke="black" d="M533,-122.11C533,-141.34 533,-169 533,-169 533,-169 379.4,-169 379.4,-169"/>
<polygon fill="black" stroke="black" points="379.4,-165.5 369.4,-169 379.4,-172.5 379.4,-165.5"/>
</g>
<!-- EmailService -->
<g id="node5" class="node">
<title>EmailService</title>
<ellipse fill="#fdb462" stroke="black" cx="393" cy="-104" rx="63.12" ry="18"/>
<text text-anchor="middle" x="393" y="-99.8" font-family="Times,serif" font-size="14.00">EmailService</text>
</g>
<!-- EmailService&#45;&gt;TenantModule -->
<g id="edge4" class="edge">
<title>EmailService&#45;&gt;TenantModule</title>
<path fill="none" stroke="black" d="M349.58,-117.15C349.58,-117.15 349.58,-140.69 349.58,-140.69"/>
<polygon fill="black" stroke="black" points="346.08,-140.69 349.58,-150.69 353.08,-140.69 346.08,-140.69"/>
</g>
<!-- ImageService -->
<g id="node6" class="node">
<title>ImageService</title>
<ellipse fill="#fdb462" stroke="black" cx="248" cy="-104" rx="64.24" ry="18"/>
<text text-anchor="middle" x="248" y="-99.8" font-family="Times,serif" font-size="14.00">ImageService</text>
</g>
<!-- ImageService&#45;&gt;TenantModule -->
<g id="edge5" class="edge">
<title>ImageService&#45;&gt;TenantModule</title>
<path fill="none" stroke="black" d="M291.45,-117.47C291.45,-117.47 291.45,-140.86 291.45,-140.86"/>
<polygon fill="black" stroke="black" points="287.95,-140.86 291.45,-150.86 294.95,-140.86 287.95,-140.86"/>
</g>
<!-- TenantsService -->
<g id="node7" class="node">
<title>TenantsService</title>
<ellipse fill="#fdb462" stroke="black" cx="95" cy="-104" rx="70.62" ry="18"/>
<text text-anchor="middle" x="95" y="-99.8" font-family="Times,serif" font-size="14.00">TenantsService</text>
</g>
<!-- TenantsService&#45;&gt;TenantModule -->
<g id="edge6" class="edge">
<title>TenantsService&#45;&gt;TenantModule</title>
<path fill="none" stroke="black" d="M95,-122.11C95,-141.34 95,-169 95,-169 95,-169 260.62,-169 260.62,-169"/>
<polygon fill="black" stroke="black" points="260.62,-172.5 270.62,-169 260.62,-165.5 260.62,-172.5"/>
</g>
</g>
</svg>
