<?xml version="1.0" encoding="UTF-8" standalone="no"?>
<!DOCTYPE svg PUBLIC "-//W3C//DTD SVG 1.1//EN"
 "http://www.w3.org/Graphics/SVG/1.1/DTD/svg11.dtd">
<!-- Generated by graphviz version 2.47.0 (20210316.0004)
 -->
<!-- Title: dependencies Pages: 1 -->
<svg width="504pt" height="211pt"
 viewBox="0.00 0.00 504.00 211.00" xmlns="http://www.w3.org/2000/svg" xmlns:xlink="http://www.w3.org/1999/xlink">
<g id="graph0" class="graph" transform="scale(1 1) rotate(0) translate(4 207)">
<title>dependencies</title>
<polygon fill="white" stroke="transparent" points="-4,4 -4,-207 500,-207 500,4 -4,4"/>
<text text-anchor="start" x="227.01" y="-42.4" font-family="Times-12" font-weight="bold" font-size="14.00">Legend</text>
<polygon fill="#ffffb3" stroke="transparent" points="14,-10 14,-30 34,-30 34,-10 14,-10"/>
<text text-anchor="start" x="37.63" y="-15.4" font-family="Times-12" font-size="14.00"> &#160;Declarations</text>
<polygon fill="#8dd3c7" stroke="transparent" points="127,-10 127,-30 147,-30 147,-10 127,-10"/>
<text text-anchor="start" x="150.73" y="-15.4" font-family="Times-12" font-size="14.00"> &#160;Module</text>
<polygon fill="#80b1d3" stroke="transparent" points="213,-10 213,-30 233,-30 233,-10 213,-10"/>
<text text-anchor="start" x="236.78" y="-15.4" font-family="Times-12" font-size="14.00"> &#160;Bootstrap</text>
<polygon fill="#fdb462" stroke="transparent" points="310,-10 310,-30 330,-30 330,-10 310,-10"/>
<text text-anchor="start" x="333.67" y="-15.4" font-family="Times-12" font-size="14.00"> &#160;Providers</text>
<polygon fill="#fb8072" stroke="transparent" points="406,-10 406,-30 426,-30 426,-10 406,-10"/>
<text text-anchor="start" x="429.73" y="-15.4" font-family="Times-12" font-size="14.00"> &#160;Exports</text>
<g id="clust1" class="cluster">
<title>cluster_PaypalModule</title>
<polygon fill="none" stroke="black" stroke-dasharray="1,5" points="45,-70 45,-195 451,-195 451,-70 45,-70"/>
</g>
<g id="clust6" class="cluster">
<title>cluster_PaypalModule_providers</title>
<polygon fill="none" stroke="black" points="53,-78 53,-130 443,-130 443,-78 53,-78"/>
</g>
<!-- PaypalService -->
<g id="node1" class="node">
<title>PaypalService</title>
<ellipse fill="#fdb462" stroke="black" cx="369" cy="-104" rx="66.05" ry="18"/>
<text text-anchor="middle" x="369" y="-99.8" font-family="Times,serif" font-size="14.00">PaypalService</text>
</g>
<!-- PaypalModule -->
<g id="node3" class="node">
<title>PaypalModule</title>
<polygon fill="#8dd3c7" stroke="black" points="319.65,-187 316.65,-191 295.65,-191 292.65,-187 222.35,-187 222.35,-151 319.65,-151 319.65,-187"/>
<text text-anchor="middle" x="271" y="-164.8" font-family="Times,serif" font-size="14.00">PaypalModule</text>
</g>
<!-- PaypalService&#45;&gt;PaypalModule -->
<g id="edge1" class="edge">
<title>PaypalService&#45;&gt;PaypalModule</title>
<path fill="none" stroke="black" d="M311.28,-113.04C311.28,-113.04 311.28,-140.96 311.28,-140.96"/>
<polygon fill="black" stroke="black" points="307.78,-140.96 311.28,-150.96 314.78,-140.96 307.78,-140.96"/>
</g>
<!-- PaypalTransactionService -->
<g id="node2" class="node">
<title>PaypalTransactionService</title>
<ellipse fill="#fdb462" stroke="black" cx="173" cy="-104" rx="111.71" ry="18"/>
<text text-anchor="middle" x="173" y="-99.8" font-family="Times,serif" font-size="14.00">PaypalTransactionService</text>
</g>
<!-- PaypalTransactionService&#45;&gt;PaypalModule -->
<g id="edge2" class="edge">
<title>PaypalTransactionService&#45;&gt;PaypalModule</title>
<path fill="none" stroke="black" d="M253.52,-116.53C253.52,-116.53 253.52,-140.85 253.52,-140.85"/>
<polygon fill="black" stroke="black" points="250.02,-140.85 253.52,-150.85 257.02,-140.85 250.02,-140.85"/>
</g>
</g>
</svg>
