<?xml version="1.0" encoding="UTF-8" standalone="no"?>
<!DOCTYPE svg PUBLIC "-//W3C//DTD SVG 1.1//EN"
 "http://www.w3.org/Graphics/SVG/1.1/DTD/svg11.dtd">
<!-- Generated by graphviz version 2.47.0 (20210316.0004)
 -->
<!-- Title: dependencies Pages: 1 -->
<svg width="1973pt" height="439pt"
 viewBox="0.00 0.00 1973.00 439.00" xmlns="http://www.w3.org/2000/svg" xmlns:xlink="http://www.w3.org/1999/xlink">
<g id="graph0" class="graph" transform="scale(1 1) rotate(0) translate(4 435)">
<title>dependencies</title>
<polygon fill="white" stroke="transparent" points="-4,4 -4,-435 1969,-435 1969,4 -4,4"/>
<text text-anchor="start" x="961.51" y="-42.4" font-family="Times-12" font-weight="bold" font-size="14.00">Legend</text>
<polygon fill="#ffffb3" stroke="transparent" points="748.5,-10 748.5,-30 768.5,-30 768.5,-10 748.5,-10"/>
<text text-anchor="start" x="772.13" y="-15.4" font-family="Times-12" font-size="14.00"> &#160;Declarations</text>
<polygon fill="#8dd3c7" stroke="transparent" points="861.5,-10 861.5,-30 881.5,-30 881.5,-10 861.5,-10"/>
<text text-anchor="start" x="885.23" y="-15.4" font-family="Times-12" font-size="14.00"> &#160;Module</text>
<polygon fill="#80b1d3" stroke="transparent" points="947.5,-10 947.5,-30 967.5,-30 967.5,-10 947.5,-10"/>
<text text-anchor="start" x="971.28" y="-15.4" font-family="Times-12" font-size="14.00"> &#160;Bootstrap</text>
<polygon fill="#fdb462" stroke="transparent" points="1044.5,-10 1044.5,-30 1064.5,-30 1064.5,-10 1044.5,-10"/>
<text text-anchor="start" x="1068.17" y="-15.4" font-family="Times-12" font-size="14.00"> &#160;Providers</text>
<polygon fill="#fb8072" stroke="transparent" points="1140.5,-10 1140.5,-30 1160.5,-30 1160.5,-10 1140.5,-10"/>
<text text-anchor="start" x="1164.23" y="-15.4" font-family="Times-12" font-size="14.00"> &#160;Exports</text>
<g id="clust1" class="cluster">
<title>cluster_AppModule</title>
<polygon fill="none" stroke="black" stroke-dasharray="1,5" points="580,-146 580,-423 872,-423 872,-146 580,-146"/>
</g>
<g id="clust3" class="cluster">
<title>cluster_AppModule_imports</title>
<polygon fill="none" stroke="black" points="620,-154 620,-358 864,-358 864,-154 620,-154"/>
</g>
<g id="clust7" class="cluster">
<title>cluster_AuthModule</title>
<polygon fill="none" stroke="black" stroke-dasharray="1,5" points="935,-70 935,-138 1957,-138 1957,-70 935,-70"/>
</g>
<g id="clust10" class="cluster">
<title>cluster_AuthModule_exports</title>
<polygon fill="none" stroke="black" points="1843,-78 1843,-130 1949,-130 1949,-78 1843,-78"/>
</g>
<g id="clust12" class="cluster">
<title>cluster_AuthModule_providers</title>
<polygon fill="none" stroke="black" points="943,-78 943,-130 1835,-130 1835,-78 943,-78"/>
</g>
<g id="clust13" class="cluster">
<title>cluster_PaypalModule</title>
<polygon fill="none" stroke="black" stroke-dasharray="1,5" points="416,-70 416,-138 822,-138 822,-70 416,-70"/>
</g>
<g id="clust18" class="cluster">
<title>cluster_PaypalModule_providers</title>
<polygon fill="none" stroke="black" points="424,-78 424,-130 814,-130 814,-78 424,-78"/>
</g>
<g id="clust19" class="cluster">
<title>cluster_ProjectsModule</title>
<polygon fill="none" stroke="black" stroke-dasharray="1,5" points="280,-298 280,-366 572,-366 572,-298 280,-298"/>
</g>
<g id="clust22" class="cluster">
<title>cluster_ProjectsModule_exports</title>
<polygon fill="none" stroke="black" points="446,-306 446,-358 564,-358 564,-306 446,-306"/>
</g>
<g id="clust24" class="cluster">
<title>cluster_ProjectsModule_providers</title>
<polygon fill="none" stroke="black" points="288,-306 288,-358 438,-358 438,-306 288,-306"/>
</g>
<g id="clust25" class="cluster">
<title>cluster_TenantModule</title>
<polygon fill="none" stroke="black" stroke-dasharray="1,5" points="8,-222 8,-290 572,-290 572,-222 8,-222"/>
</g>
<g id="clust28" class="cluster">
<title>cluster_TenantModule_exports</title>
<polygon fill="none" stroke="black" points="328,-230 328,-282 564,-282 564,-230 328,-230"/>
</g>
<g id="clust30" class="cluster">
<title>cluster_TenantModule_providers</title>
<polygon fill="none" stroke="black" points="16,-230 16,-282 320,-282 320,-230 16,-230"/>
</g>
<g id="clust31" class="cluster">
<title>cluster_UserModule</title>
<polygon fill="none" stroke="black" stroke-dasharray="1,5" points="888,-146 888,-214 1404,-214 1404,-146 888,-146"/>
</g>
<g id="clust34" class="cluster">
<title>cluster_UserModule_exports</title>
<polygon fill="none" stroke="black" points="1286,-154 1286,-206 1396,-206 1396,-154 1286,-154"/>
</g>
<g id="clust36" class="cluster">
<title>cluster_UserModule_providers</title>
<polygon fill="none" stroke="black" points="896,-154 896,-206 1278,-206 1278,-154 896,-154"/>
</g>
<!-- AuthModule -->
<g id="node1" class="node">
<title>AuthModule</title>
<polygon fill="#8dd3c7" stroke="black" points="855.55,-350 852.55,-354 831.55,-354 828.55,-350 768.45,-350 768.45,-314 855.55,-314 855.55,-350"/>
<text text-anchor="middle" x="812" y="-327.8" font-family="Times,serif" font-size="14.00">AuthModule</text>
</g>
<!-- AppModule -->
<g id="node6" class="node">
<title>AppModule</title>
<polygon fill="#8dd3c7" stroke="black" points="721.66,-415 718.66,-419 697.66,-419 694.66,-415 638.34,-415 638.34,-379 721.66,-379 721.66,-415"/>
<text text-anchor="middle" x="680" y="-392.8" font-family="Times,serif" font-size="14.00">AppModule</text>
</g>
<!-- AuthModule&#45;&gt;AppModule -->
<g id="edge1" class="edge">
<title>AuthModule&#45;&gt;AppModule</title>
<path fill="none" stroke="black" d="M768.38,-343C734.75,-343 693.94,-343 693.94,-343 693.94,-343 693.94,-368.72 693.94,-368.72"/>
<polygon fill="black" stroke="black" points="690.44,-368.72 693.94,-378.72 697.44,-368.72 690.44,-368.72"/>
</g>
<!-- AuthService  -->
<g id="node7" class="node">
<title>AuthService </title>
<polygon fill="#fb8072" stroke="black" points="1940.98,-122 1851.02,-122 1851.02,-86 1940.98,-86 1940.98,-122"/>
<text text-anchor="middle" x="1896" y="-99.8" font-family="Times,serif" font-size="14.00">AuthService </text>
</g>
<!-- AuthModule&#45;&gt;AuthService  -->
<g id="edge9" class="edge">
<title>AuthModule&#45;&gt;AuthService </title>
<path fill="none" stroke="black" stroke-dasharray="5,2" d="M855.84,-345C1058.64,-345 1896,-345 1896,-345 1896,-345 1896,-132.11 1896,-132.11"/>
<polygon fill="black" stroke="black" points="1899.5,-132.11 1896,-122.11 1892.5,-132.11 1899.5,-132.11"/>
</g>
<!-- PaypalModule -->
<g id="node2" class="node">
<title>PaypalModule</title>
<polygon fill="#8dd3c7" stroke="black" points="725.65,-198 722.65,-202 701.65,-202 698.65,-198 628.35,-198 628.35,-162 725.65,-162 725.65,-198"/>
<text text-anchor="middle" x="677" y="-175.8" font-family="Times,serif" font-size="14.00">PaypalModule</text>
</g>
<!-- PaypalModule&#45;&gt;AppModule -->
<g id="edge2" class="edge">
<title>PaypalModule&#45;&gt;AppModule</title>
<path fill="none" stroke="black" d="M725.84,-180C731.97,-180 736.15,-180 736.15,-180 736.15,-180 736.15,-388 736.15,-388 736.15,-388 731.69,-388 731.69,-388"/>
<polygon fill="black" stroke="black" points="731.69,-384.5 721.69,-388 731.69,-391.5 731.69,-384.5"/>
</g>
<!-- ProjectsModule -->
<g id="node3" class="node">
<title>ProjectsModule</title>
<polygon fill="#8dd3c7" stroke="black" points="732.15,-274 729.15,-278 708.15,-278 705.15,-274 627.85,-274 627.85,-238 732.15,-238 732.15,-274"/>
<text text-anchor="middle" x="680" y="-251.8" font-family="Times,serif" font-size="14.00">ProjectsModule</text>
</g>
<!-- ProjectsModule&#45;&gt;AuthModule -->
<g id="edge6" class="edge">
<title>ProjectsModule&#45;&gt;AuthModule</title>
<path fill="none" stroke="black" d="M727.08,-274.15C727.08,-297.76 727.08,-336 727.08,-336 727.08,-336 758.05,-336 758.05,-336"/>
<polygon fill="black" stroke="black" points="758.05,-339.5 768.05,-336 758.05,-332.5 758.05,-339.5"/>
</g>
<!-- ProjectsModule&#45;&gt;AppModule -->
<g id="edge3" class="edge">
<title>ProjectsModule&#45;&gt;AppModule</title>
<path fill="none" stroke="black" d="M666.06,-274.14C666.06,-274.14 666.06,-368.93 666.06,-368.93"/>
<polygon fill="black" stroke="black" points="662.56,-368.92 666.06,-378.93 669.56,-368.93 662.56,-368.92"/>
</g>
<!-- ProjectService  -->
<g id="node15" class="node">
<title>ProjectService </title>
<polygon fill="#fb8072" stroke="black" points="555.63,-350 454.37,-350 454.37,-314 555.63,-314 555.63,-350"/>
<text text-anchor="middle" x="505" y="-327.8" font-family="Times,serif" font-size="14.00">ProjectService </text>
</g>
<!-- ProjectsModule&#45;&gt;ProjectService  -->
<g id="edge17" class="edge">
<title>ProjectsModule&#45;&gt;ProjectService </title>
<path fill="none" stroke="black" stroke-dasharray="5,2" d="M634.67,-274.03C634.67,-293.58 634.67,-322 634.67,-322 634.67,-322 565.88,-322 565.88,-322"/>
<polygon fill="black" stroke="black" points="565.88,-318.5 555.88,-322 565.88,-325.5 565.88,-318.5"/>
</g>
<!-- TenantModule -->
<g id="node4" class="node">
<title>TenantModule</title>
<polygon fill="#8dd3c7" stroke="black" points="842.42,-198 839.42,-202 818.42,-202 815.42,-198 743.58,-198 743.58,-162 842.42,-162 842.42,-198"/>
<text text-anchor="middle" x="793" y="-175.8" font-family="Times,serif" font-size="14.00">TenantModule</text>
</g>
<!-- TenantModule&#45;&gt;AuthModule -->
<g id="edge7" class="edge">
<title>TenantModule&#45;&gt;AuthModule</title>
<path fill="none" stroke="black" d="M764.74,-198.27C764.74,-238.06 764.74,-329 764.74,-329 764.74,-329 765.11,-329 765.11,-329"/>
<polygon fill="black" stroke="black" points="758.44,-332.5 768.44,-329 758.44,-325.5 758.44,-332.5"/>
</g>
<!-- UserModule -->
<g id="node5" class="node">
<title>UserModule</title>
<polygon fill="#8dd3c7" stroke="black" points="855.98,-274 852.98,-278 831.98,-278 828.98,-274 770.02,-274 770.02,-238 855.98,-238 855.98,-274"/>
<text text-anchor="middle" x="813" y="-251.8" font-family="Times,serif" font-size="14.00">UserModule</text>
</g>
<!-- TenantModule&#45;&gt;UserModule -->
<g id="edge25" class="edge">
<title>TenantModule&#45;&gt;UserModule</title>
<path fill="none" stroke="black" d="M824.16,-198.01C824.16,-198.01 824.16,-227.85 824.16,-227.85"/>
<polygon fill="black" stroke="black" points="820.66,-227.85 824.16,-237.85 827.66,-227.85 820.66,-227.85"/>
</g>
<!-- TenantModule&#45;&gt;AppModule -->
<g id="edge4" class="edge">
<title>TenantModule&#45;&gt;AppModule</title>
<path fill="none" stroke="black" d="M761.24,-198.11C761.24,-251.74 761.24,-406 761.24,-406 761.24,-406 732.05,-406 732.05,-406"/>
<polygon fill="black" stroke="black" points="732.05,-402.5 722.05,-406 732.05,-409.5 732.05,-402.5"/>
</g>
<!-- ImageService  -->
<g id="node17" class="node">
<title>ImageService </title>
<polygon fill="#fb8072" stroke="black" points="432.46,-274 335.54,-274 335.54,-238 432.46,-238 432.46,-274"/>
<text text-anchor="middle" x="384" y="-251.8" font-family="Times,serif" font-size="14.00">ImageService </text>
</g>
<!-- TenantModule&#45;&gt;ImageService  -->
<g id="edge19" class="edge">
<title>TenantModule&#45;&gt;ImageService </title>
<path fill="none" stroke="black" stroke-dasharray="5,2" d="M754.26,-198.1C754.26,-209.09 754.26,-221 754.26,-221 754.26,-221 367.9,-221 367.9,-221 367.9,-221 367.9,-227.68 367.9,-227.68"/>
<polygon fill="black" stroke="black" points="364.4,-227.68 367.9,-237.68 371.4,-227.68 364.4,-227.68"/>
</g>
<!-- TenantsService  -->
<g id="node18" class="node">
<title>TenantsService </title>
<polygon fill="#fb8072" stroke="black" points="555.79,-274 450.21,-274 450.21,-238 555.79,-238 555.79,-274"/>
<text text-anchor="middle" x="503" y="-251.8" font-family="Times,serif" font-size="14.00">TenantsService </text>
</g>
<!-- TenantModule&#45;&gt;TenantsService  -->
<g id="edge20" class="edge">
<title>TenantModule&#45;&gt;TenantsService </title>
<path fill="none" stroke="black" stroke-dasharray="5,2" d="M757.75,-198.24C757.75,-213.57 757.75,-233 757.75,-233 757.75,-233 503,-233 503,-233 503,-233 503,-233.49 503,-233.49"/>
<polygon fill="black" stroke="black" points="499.5,-227.88 503,-237.88 506.5,-227.88 499.5,-227.88"/>
</g>
<!-- UserModule&#45;&gt;AuthModule -->
<g id="edge8" class="edge">
<title>UserModule&#45;&gt;AuthModule</title>
<path fill="none" stroke="black" d="M812.89,-274.01C812.89,-274.01 812.89,-303.85 812.89,-303.85"/>
<polygon fill="black" stroke="black" points="809.39,-303.85 812.89,-313.85 816.39,-303.85 809.39,-303.85"/>
</g>
<!-- UserModule&#45;&gt;AppModule -->
<g id="edge5" class="edge">
<title>UserModule&#45;&gt;AppModule</title>
<path fill="none" stroke="black" d="M769.67,-256C753.95,-256 739.97,-256 739.97,-256 739.97,-256 739.97,-397 739.97,-397 739.97,-397 731.98,-397 731.98,-397"/>
<polygon fill="black" stroke="black" points="731.98,-393.5 721.98,-397 731.98,-400.5 731.98,-393.5"/>
</g>
<!-- UserModule&#45;&gt;ImageService  -->
<g id="edge26" class="edge">
<title>UserModule&#45;&gt;ImageService </title>
<path fill="none" stroke="black" stroke-dasharray="5,2" d="M806.11,-237.8C806.11,-231.97 806.11,-227 806.11,-227 806.11,-227 400.02,-227 400.02,-227 400.02,-227 400.02,-228.08 400.02,-228.08"/>
<polygon fill="black" stroke="black" points="396.52,-227.8 400.02,-237.8 403.52,-227.8 396.52,-227.8"/>
</g>
<!-- UsersService  -->
<g id="node21" class="node">
<title>UsersService </title>
<polygon fill="#fb8072" stroke="black" points="1387.85,-198 1294.15,-198 1294.15,-162 1387.85,-162 1387.85,-198"/>
<text text-anchor="middle" x="1341" y="-175.8" font-family="Times,serif" font-size="14.00">UsersService </text>
</g>
<!-- UserModule&#45;&gt;UsersService  -->
<g id="edge27" class="edge">
<title>UserModule&#45;&gt;UsersService </title>
<path fill="none" stroke="black" stroke-dasharray="5,2" d="M856.21,-262C982.31,-262 1341,-262 1341,-262 1341,-262 1341,-208.2 1341,-208.2"/>
<polygon fill="black" stroke="black" points="1344.5,-208.2 1341,-198.2 1337.5,-208.2 1344.5,-208.2"/>
</g>
<!-- AuthService -->
<g id="node8" class="node">
<title>AuthService</title>
<ellipse fill="#fdb462" stroke="black" cx="1154" cy="-104" rx="59.11" ry="18"/>
<text text-anchor="middle" x="1154" y="-99.8" font-family="Times,serif" font-size="14.00">AuthService</text>
</g>
<!-- AuthService&#45;&gt;AuthModule -->
<g id="edge10" class="edge">
<title>AuthService&#45;&gt;AuthModule</title>
<path fill="none" stroke="black" d="M1183.65,-119.72C1183.65,-133.72 1183.65,-152 1183.65,-152 1183.65,-152 1039.73,-152 1039.73,-152 1039.73,-152 1039.73,-325 1039.73,-325 1039.73,-325 865.64,-325 865.64,-325"/>
<polygon fill="black" stroke="black" points="865.64,-321.5 855.64,-325 865.64,-328.5 865.64,-321.5"/>
</g>
<!-- AuthService&#45;&gt;TenantModule -->
<g id="edge21" class="edge">
<title>AuthService&#45;&gt;TenantModule</title>
<path fill="none" stroke="black" d="M1124.35,-119.64C1124.35,-126.05 1124.35,-132 1124.35,-132 1124.35,-132 830.23,-132 830.23,-132 830.23,-132 830.23,-151.85 830.23,-151.85"/>
<polygon fill="black" stroke="black" points="826.73,-151.85 830.23,-161.85 833.73,-151.85 826.73,-151.85"/>
</g>
<!-- AuthService&#45;&gt;UserModule -->
<g id="edge28" class="edge">
<title>AuthService&#45;&gt;UserModule</title>
<path fill="none" stroke="black" d="M1154,-122.11C1154,-131.9 1154,-142 1154,-142 1154,-142 849.1,-142 849.1,-142 849.1,-142 849.1,-227.94 849.1,-227.94"/>
<polygon fill="black" stroke="black" points="845.6,-227.94 849.1,-237.94 852.6,-227.94 845.6,-227.94"/>
</g>
<!-- EmailService -->
<g id="node9" class="node">
<title>EmailService</title>
<ellipse fill="#fdb462" stroke="black" cx="1014" cy="-104" rx="63.12" ry="18"/>
<text text-anchor="middle" x="1014" y="-99.8" font-family="Times,serif" font-size="14.00">EmailService</text>
</g>
<!-- EmailService&#45;&gt;AuthModule -->
<g id="edge11" class="edge">
<title>EmailService&#45;&gt;AuthModule</title>
<path fill="none" stroke="black" d="M1033.85,-121.31C1033.85,-172.57 1033.85,-320 1033.85,-320 1033.85,-320 865.57,-320 865.57,-320"/>
<polygon fill="black" stroke="black" points="865.57,-316.5 855.57,-320 865.57,-323.5 865.57,-316.5"/>
</g>
<!-- EmailService&#45;&gt;TenantModule -->
<g id="edge22" class="edge">
<title>EmailService&#45;&gt;TenantModule</title>
<path fill="none" stroke="black" d="M954.47,-98C896.88,-98 818.25,-98 818.25,-98 818.25,-98 818.25,-151.8 818.25,-151.8"/>
<polygon fill="black" stroke="black" points="814.75,-151.8 818.25,-161.8 821.75,-151.8 814.75,-151.8"/>
</g>
<!-- EmailService&#45;&gt;UserModule -->
<g id="edge29" class="edge">
<title>EmailService&#45;&gt;UserModule</title>
<path fill="none" stroke="black" d="M954.17,-110C905.79,-110 845.66,-110 845.66,-110 845.66,-110 845.66,-227.8 845.66,-227.8"/>
<polygon fill="black" stroke="black" points="842.16,-227.8 845.66,-237.8 849.16,-227.8 842.16,-227.8"/>
</g>
<!-- FacebookAuthStrategy -->
<g id="node10" class="node">
<title>FacebookAuthStrategy</title>
<ellipse fill="#fdb462" stroke="black" cx="1531" cy="-104" rx="100.14" ry="18"/>
<text text-anchor="middle" x="1531" y="-99.8" font-family="Times,serif" font-size="14.00">FacebookAuthStrategy</text>
</g>
<!-- FacebookAuthStrategy&#45;&gt;AuthModule -->
<g id="edge12" class="edge">
<title>FacebookAuthStrategy&#45;&gt;AuthModule</title>
<path fill="none" stroke="black" d="M1531,-122.13C1531,-176.58 1531,-335 1531,-335 1531,-335 865.63,-335 865.63,-335"/>
<polygon fill="black" stroke="black" points="865.63,-331.5 855.63,-335 865.63,-338.5 865.63,-331.5"/>
</g>
<!-- GithubAuthStrategy -->
<g id="node11" class="node">
<title>GithubAuthStrategy</title>
<ellipse fill="#fdb462" stroke="black" cx="1738" cy="-104" rx="89.21" ry="18"/>
<text text-anchor="middle" x="1738" y="-99.8" font-family="Times,serif" font-size="14.00">GithubAuthStrategy</text>
</g>
<!-- GithubAuthStrategy&#45;&gt;AuthModule -->
<g id="edge13" class="edge">
<title>GithubAuthStrategy&#45;&gt;AuthModule</title>
<path fill="none" stroke="black" d="M1738,-122.13C1738,-177.39 1738,-340 1738,-340 1738,-340 865.73,-340 865.73,-340"/>
<polygon fill="black" stroke="black" points="865.73,-336.5 855.73,-340 865.73,-343.5 865.73,-336.5"/>
</g>
<!-- GoogleAuthStrategy -->
<g id="node12" class="node">
<title>GoogleAuthStrategy</title>
<ellipse fill="#fdb462" stroke="black" cx="1322" cy="-104" rx="90.91" ry="18"/>
<text text-anchor="middle" x="1322" y="-99.8" font-family="Times,serif" font-size="14.00">GoogleAuthStrategy</text>
</g>
<!-- GoogleAuthStrategy&#45;&gt;AuthModule -->
<g id="edge14" class="edge">
<title>GoogleAuthStrategy&#45;&gt;AuthModule</title>
<path fill="none" stroke="black" d="M1282.36,-120.25C1282.36,-172.07 1282.36,-330 1282.36,-330 1282.36,-330 865.83,-330 865.83,-330"/>
<polygon fill="black" stroke="black" points="865.83,-326.5 855.83,-330 865.83,-333.5 865.83,-326.5"/>
</g>
<!-- PaypalService -->
<g id="node13" class="node">
<title>PaypalService</title>
<ellipse fill="#fdb462" stroke="black" cx="740" cy="-104" rx="66.05" ry="18"/>
<text text-anchor="middle" x="740" y="-99.8" font-family="Times,serif" font-size="14.00">PaypalService</text>
</g>
<!-- PaypalService&#45;&gt;PaypalModule -->
<g id="edge15" class="edge">
<title>PaypalService&#45;&gt;PaypalModule</title>
<path fill="none" stroke="black" d="M699.78,-118.65C699.78,-118.65 699.78,-151.9 699.78,-151.9"/>
<polygon fill="black" stroke="black" points="696.28,-151.9 699.78,-161.9 703.28,-151.9 696.28,-151.9"/>
</g>
<!-- PaypalTransactionService -->
<g id="node14" class="node">
<title>PaypalTransactionService</title>
<ellipse fill="#fdb462" stroke="black" cx="544" cy="-104" rx="111.71" ry="18"/>
<text text-anchor="middle" x="544" y="-99.8" font-family="Times,serif" font-size="14.00">PaypalTransactionService</text>
</g>
<!-- PaypalTransactionService&#45;&gt;PaypalModule -->
<g id="edge16" class="edge">
<title>PaypalTransactionService&#45;&gt;PaypalModule</title>
<path fill="none" stroke="black" d="M642.02,-112.72C642.02,-112.72 642.02,-151.88 642.02,-151.88"/>
<polygon fill="black" stroke="black" points="638.52,-151.88 642.02,-161.88 645.52,-151.88 638.52,-151.88"/>
</g>
<!-- ProjectService -->
<g id="node16" class="node">
<title>ProjectService</title>
<ellipse fill="#fdb462" stroke="black" cx="363" cy="-332" rx="67.19" ry="18"/>
<text text-anchor="middle" x="363" y="-327.8" font-family="Times,serif" font-size="14.00">ProjectService</text>
</g>
<!-- ProjectService&#45;&gt;ProjectsModule -->
<g id="edge18" class="edge">
<title>ProjectService&#45;&gt;ProjectsModule</title>
<path fill="none" stroke="black" d="M383.06,-314.78C383.06,-304.72 383.06,-294 383.06,-294 383.06,-294 631.17,-294 631.17,-294 631.17,-294 631.17,-284.11 631.17,-284.11"/>
<polygon fill="black" stroke="black" points="634.67,-284.11 631.17,-274.11 627.67,-284.11 634.67,-284.11"/>
</g>
<!-- ImageService -->
<g id="node19" class="node">
<title>ImageService</title>
<ellipse fill="#fdb462" stroke="black" cx="88" cy="-256" rx="64.24" ry="18"/>
<text text-anchor="middle" x="88" y="-251.8" font-family="Times,serif" font-size="14.00">ImageService</text>
</g>
<!-- ImageService&#45;&gt;TenantModule -->
<g id="edge23" class="edge">
<title>ImageService&#45;&gt;TenantModule</title>
<path fill="none" stroke="black" d="M66.63,-238.97C66.63,-223.81 66.63,-204 66.63,-204 66.63,-204 747.28,-204 747.28,-204 747.28,-204 747.28,-203.42 747.28,-203.42"/>
<polygon fill="black" stroke="black" points="750.78,-208.19 747.28,-198.19 743.78,-208.19 750.78,-208.19"/>
</g>
<!-- ImageService&#45;&gt;UserModule -->
<g id="edge30" class="edge">
<title>ImageService&#45;&gt;UserModule</title>
<path fill="none" stroke="black" d="M109.37,-238.87C109.37,-225.79 109.37,-210 109.37,-210 109.37,-210 788.06,-210 788.06,-210 788.06,-210 788.06,-227.82 788.06,-227.82"/>
<polygon fill="black" stroke="black" points="784.56,-227.82 788.06,-237.82 791.56,-227.82 784.56,-227.82"/>
</g>
<!-- TenantsService -->
<g id="node20" class="node">
<title>TenantsService</title>
<ellipse fill="#fdb462" stroke="black" cx="241" cy="-256" rx="70.62" ry="18"/>
<text text-anchor="middle" x="241" y="-251.8" font-family="Times,serif" font-size="14.00">TenantsService</text>
</g>
<!-- TenantsService&#45;&gt;TenantModule -->
<g id="edge24" class="edge">
<title>TenantsService&#45;&gt;TenantModule</title>
<path fill="none" stroke="black" d="M241,-237.87C241,-227.29 241,-216 241,-216 241,-216 750.77,-216 750.77,-216 750.77,-216 750.77,-208.42 750.77,-208.42"/>
<polygon fill="black" stroke="black" points="754.27,-208.42 750.77,-198.42 747.27,-208.42 754.27,-208.42"/>
</g>
<!-- IndexManagementService -->
<g id="node22" class="node">
<title>IndexManagementService</title>
<ellipse fill="#fdb462" stroke="black" cx="1158" cy="-180" rx="112.28" ry="18"/>
<text text-anchor="middle" x="1158" y="-175.8" font-family="Times,serif" font-size="14.00">IndexManagementService</text>
</g>
<!-- IndexManagementService&#45;&gt;UserModule -->
<g id="edge31" class="edge">
<title>IndexManagementService&#45;&gt;UserModule</title>
<path fill="none" stroke="black" d="M1158,-198.03C1158,-218.77 1158,-250 1158,-250 1158,-250 866,-250 866,-250"/>
<polygon fill="black" stroke="black" points="866,-246.5 856,-250 866,-253.5 866,-246.5"/>
</g>
<!-- UsersService -->
<g id="node23" class="node">
<title>UsersService</title>
<ellipse fill="#fdb462" stroke="black" cx="966" cy="-180" rx="61.95" ry="18"/>
<text text-anchor="middle" x="966" y="-175.8" font-family="Times,serif" font-size="14.00">UsersService</text>
</g>
<!-- UsersService&#45;&gt;UserModule -->
<g id="edge32" class="edge">
<title>UsersService&#45;&gt;UserModule</title>
<path fill="none" stroke="black" d="M903.96,-180C877.47,-180 852.54,-180 852.54,-180 852.54,-180 852.54,-227.99 852.54,-227.99"/>
<polygon fill="black" stroke="black" points="849.04,-227.99 852.54,-237.99 856.04,-227.99 849.04,-227.99"/>
</g>
</g>
</svg>
