<?xml version="1.0" encoding="UTF-8" standalone="no"?>
<!DOCTYPE svg PUBLIC "-//W3C//DTD SVG 1.1//EN"
 "http://www.w3.org/Graphics/SVG/1.1/DTD/svg11.dtd">
<!-- Generated by graphviz version 2.47.0 (20210316.0004)
 -->
<!-- Title: dependencies Pages: 1 -->
<svg width="1811pt" height="439pt"
 viewBox="0.00 0.00 1811.00 439.00" xmlns="http://www.w3.org/2000/svg" xmlns:xlink="http://www.w3.org/1999/xlink">
<g id="graph0" class="graph" transform="scale(1 1) rotate(0) translate(4 435)">
<title>dependencies</title>
<polygon fill="white" stroke="transparent" points="-4,4 -4,-435 1807,-435 1807,4 -4,4"/>
<text text-anchor="start" x="880.51" y="-42.4" font-family="Times-12" font-weight="bold" font-size="14.00">Legend</text>
<polygon fill="#ffffb3" stroke="transparent" points="667.5,-10 667.5,-30 687.5,-30 687.5,-10 667.5,-10"/>
<text text-anchor="start" x="691.13" y="-15.4" font-family="Times-12" font-size="14.00"> &#160;Declarations</text>
<polygon fill="#8dd3c7" stroke="transparent" points="780.5,-10 780.5,-30 800.5,-30 800.5,-10 780.5,-10"/>
<text text-anchor="start" x="804.23" y="-15.4" font-family="Times-12" font-size="14.00"> &#160;Module</text>
<polygon fill="#80b1d3" stroke="transparent" points="866.5,-10 866.5,-30 886.5,-30 886.5,-10 866.5,-10"/>
<text text-anchor="start" x="890.28" y="-15.4" font-family="Times-12" font-size="14.00"> &#160;Bootstrap</text>
<polygon fill="#fdb462" stroke="transparent" points="963.5,-10 963.5,-30 983.5,-30 983.5,-10 963.5,-10"/>
<text text-anchor="start" x="987.17" y="-15.4" font-family="Times-12" font-size="14.00"> &#160;Providers</text>
<polygon fill="#fb8072" stroke="transparent" points="1059.5,-10 1059.5,-30 1079.5,-30 1079.5,-10 1059.5,-10"/>
<text text-anchor="start" x="1083.23" y="-15.4" font-family="Times-12" font-size="14.00"> &#160;Exports</text>
<g id="clust1" class="cluster">
<title>cluster_AppModule</title>
<polygon fill="none" stroke="black" stroke-dasharray="1,5" points="580,-146 580,-423 872,-423 872,-146 580,-146"/>
</g>
<g id="clust3" class="cluster">
<title>cluster_AppModule_imports</title>
<polygon fill="none" stroke="black" points="620,-154 620,-358 864,-358 864,-154 620,-154"/>
</g>
<g id="clust7" class="cluster">
<title>cluster_AuthModule</title>
<polygon fill="none" stroke="black" stroke-dasharray="1,5" points="990,-70 990,-138 1795,-138 1795,-70 990,-70"/>
</g>
<g id="clust10" class="cluster">
<title>cluster_AuthModule_exports</title>
<polygon fill="none" stroke="black" points="1681,-78 1681,-130 1787,-130 1787,-78 1681,-78"/>
</g>
<g id="clust12" class="cluster">
<title>cluster_AuthModule_providers</title>
<polygon fill="none" stroke="black" points="998,-78 998,-130 1673,-130 1673,-78 998,-78"/>
</g>
<g id="clust13" class="cluster">
<title>cluster_PaypalModule</title>
<polygon fill="none" stroke="black" stroke-dasharray="1,5" points="451,-70 451,-138 857,-138 857,-70 451,-70"/>
</g>
<g id="clust18" class="cluster">
<title>cluster_PaypalModule_providers</title>
<polygon fill="none" stroke="black" points="459,-78 459,-130 849,-130 849,-78 459,-78"/>
</g>
<g id="clust19" class="cluster">
<title>cluster_ProjectsModule</title>
<polygon fill="none" stroke="black" stroke-dasharray="1,5" points="280,-298 280,-366 572,-366 572,-298 280,-298"/>
</g>
<g id="clust22" class="cluster">
<title>cluster_ProjectsModule_exports</title>
<polygon fill="none" stroke="black" points="446,-306 446,-358 564,-358 564,-306 446,-306"/>
</g>
<g id="clust24" class="cluster">
<title>cluster_ProjectsModule_providers</title>
<polygon fill="none" stroke="black" points="288,-306 288,-358 438,-358 438,-306 288,-306"/>
</g>
<g id="clust25" class="cluster">
<title>cluster_TenantModule</title>
<polygon fill="none" stroke="black" stroke-dasharray="1,5" points="8,-222 8,-290 572,-290 572,-222 8,-222"/>
</g>
<g id="clust28" class="cluster">
<title>cluster_TenantModule_exports</title>
<polygon fill="none" stroke="black" points="328,-230 328,-282 564,-282 564,-230 328,-230"/>
</g>
<g id="clust30" class="cluster">
<title>cluster_TenantModule_providers</title>
<polygon fill="none" stroke="black" points="16,-230 16,-282 320,-282 320,-230 16,-230"/>
</g>
<g id="clust31" class="cluster">
<title>cluster_UserModule</title>
<polygon fill="none" stroke="black" stroke-dasharray="1,5" points="888,-146 888,-214 1404,-214 1404,-146 888,-146"/>
</g>
<g id="clust34" class="cluster">
<title>cluster_UserModule_exports</title>
<polygon fill="none" stroke="black" points="1286,-154 1286,-206 1396,-206 1396,-154 1286,-154"/>
</g>
<g id="clust36" class="cluster">
<title>cluster_UserModule_providers</title>
<polygon fill="none" stroke="black" points="896,-154 896,-206 1278,-206 1278,-154 896,-154"/>
</g>
<!-- AuthModule -->
<g id="node1" class="node">
<title>AuthModule</title>
<polygon fill="#8dd3c7" stroke="black" points="855.55,-350 852.55,-354 831.55,-354 828.55,-350 768.45,-350 768.45,-314 855.55,-314 855.55,-350"/>
<text text-anchor="middle" x="812" y="-327.8" font-family="Times,serif" font-size="14.00">AuthModule</text>
</g>
<!-- AppModule -->
<g id="node6" class="node">
<title>AppModule</title>
<polygon fill="#8dd3c7" stroke="black" points="721.66,-415 718.66,-419 697.66,-419 694.66,-415 638.34,-415 638.34,-379 721.66,-379 721.66,-415"/>
<text text-anchor="middle" x="680" y="-392.8" font-family="Times,serif" font-size="14.00">AppModule</text>
</g>
<!-- AuthModule&#45;&gt;AppModule -->
<g id="edge1" class="edge">
<title>AuthModule&#45;&gt;AppModule</title>
<path fill="none" stroke="black" d="M768.38,-343C734.75,-343 693.94,-343 693.94,-343 693.94,-343 693.94,-368.72 693.94,-368.72"/>
<polygon fill="black" stroke="black" points="690.44,-368.72 693.94,-378.72 697.44,-368.72 690.44,-368.72"/>
</g>
<!-- AuthService  -->
<g id="node7" class="node">
<title>AuthService </title>
<polygon fill="#fb8072" stroke="black" points="1778.98,-122 1689.02,-122 1689.02,-86 1778.98,-86 1778.98,-122"/>
<text text-anchor="middle" x="1734" y="-99.8" font-family="Times,serif" font-size="14.00">AuthService </text>
</g>
<!-- AuthModule&#45;&gt;AuthService  -->
<g id="edge9" class="edge">
<title>AuthModule&#45;&gt;AuthService </title>
<path fill="none" stroke="black" stroke-dasharray="5,2" d="M855.85,-344C1039.08,-344 1734,-344 1734,-344 1734,-344 1734,-132.04 1734,-132.04"/>
<polygon fill="black" stroke="black" points="1737.5,-132.04 1734,-122.04 1730.5,-132.04 1737.5,-132.04"/>
</g>
<!-- PaypalModule -->
<g id="node2" class="node">
<title>PaypalModule</title>
<polygon fill="#8dd3c7" stroke="black" points="725.65,-198 722.65,-202 701.65,-202 698.65,-198 628.35,-198 628.35,-162 725.65,-162 725.65,-198"/>
<text text-anchor="middle" x="677" y="-175.8" font-family="Times,serif" font-size="14.00">PaypalModule</text>
</g>
<!-- PaypalModule&#45;&gt;AppModule -->
<g id="edge2" class="edge">
<title>PaypalModule&#45;&gt;AppModule</title>
<path fill="none" stroke="black" d="M725.84,-180C731.97,-180 736.15,-180 736.15,-180 736.15,-180 736.15,-388 736.15,-388 736.15,-388 731.69,-388 731.69,-388"/>
<polygon fill="black" stroke="black" points="731.69,-384.5 721.69,-388 731.69,-391.5 731.69,-384.5"/>
</g>
<!-- ProjectsModule -->
<g id="node3" class="node">
<title>ProjectsModule</title>
<polygon fill="#8dd3c7" stroke="black" points="732.15,-274 729.15,-278 708.15,-278 705.15,-274 627.85,-274 627.85,-238 732.15,-238 732.15,-274"/>
<text text-anchor="middle" x="680" y="-251.8" font-family="Times,serif" font-size="14.00">ProjectsModule</text>
</g>
<!-- ProjectsModule&#45;&gt;AuthModule -->
<g id="edge6" class="edge">
<title>ProjectsModule&#45;&gt;AuthModule</title>
<path fill="none" stroke="black" d="M727.08,-274.15C727.08,-297.76 727.08,-336 727.08,-336 727.08,-336 758.05,-336 758.05,-336"/>
<polygon fill="black" stroke="black" points="758.05,-339.5 768.05,-336 758.05,-332.5 758.05,-339.5"/>
</g>
<!-- ProjectsModule&#45;&gt;AppModule -->
<g id="edge3" class="edge">
<title>ProjectsModule&#45;&gt;AppModule</title>
<path fill="none" stroke="black" d="M666.06,-274.14C666.06,-274.14 666.06,-368.93 666.06,-368.93"/>
<polygon fill="black" stroke="black" points="662.56,-368.92 666.06,-378.93 669.56,-368.93 662.56,-368.92"/>
</g>
<!-- ProjectService  -->
<g id="node14" class="node">
<title>ProjectService </title>
<polygon fill="#fb8072" stroke="black" points="555.63,-350 454.37,-350 454.37,-314 555.63,-314 555.63,-350"/>
<text text-anchor="middle" x="505" y="-327.8" font-family="Times,serif" font-size="14.00">ProjectService </text>
</g>
<!-- ProjectsModule&#45;&gt;ProjectService  -->
<g id="edge16" class="edge">
<title>ProjectsModule&#45;&gt;ProjectService </title>
<path fill="none" stroke="black" stroke-dasharray="5,2" d="M634.67,-274.03C634.67,-293.58 634.67,-322 634.67,-322 634.67,-322 565.88,-322 565.88,-322"/>
<polygon fill="black" stroke="black" points="565.88,-318.5 555.88,-322 565.88,-325.5 565.88,-318.5"/>
</g>
<!-- TenantModule -->
<g id="node4" class="node">
<title>TenantModule</title>
<polygon fill="#8dd3c7" stroke="black" points="842.42,-198 839.42,-202 818.42,-202 815.42,-198 743.58,-198 743.58,-162 842.42,-162 842.42,-198"/>
<text text-anchor="middle" x="793" y="-175.8" font-family="Times,serif" font-size="14.00">TenantModule</text>
</g>
<!-- TenantModule&#45;&gt;AuthModule -->
<g id="edge7" class="edge">
<title>TenantModule&#45;&gt;AuthModule</title>
<path fill="none" stroke="black" d="M764.74,-198.27C764.74,-238.06 764.74,-329 764.74,-329 764.74,-329 765.11,-329 765.11,-329"/>
<polygon fill="black" stroke="black" points="758.44,-332.5 768.44,-329 758.44,-325.5 758.44,-332.5"/>
</g>
<!-- UserModule -->
<g id="node5" class="node">
<title>UserModule</title>
<polygon fill="#8dd3c7" stroke="black" points="855.98,-274 852.98,-278 831.98,-278 828.98,-274 770.02,-274 770.02,-238 855.98,-238 855.98,-274"/>
<text text-anchor="middle" x="813" y="-251.8" font-family="Times,serif" font-size="14.00">UserModule</text>
</g>
<!-- TenantModule&#45;&gt;UserModule -->
<g id="edge24" class="edge">
<title>TenantModule&#45;&gt;UserModule</title>
<path fill="none" stroke="black" d="M818.14,-198.01C818.14,-198.01 818.14,-227.85 818.14,-227.85"/>
<polygon fill="black" stroke="black" points="814.64,-227.85 818.14,-237.85 821.64,-227.85 814.64,-227.85"/>
</g>
<!-- TenantModule&#45;&gt;AppModule -->
<g id="edge4" class="edge">
<title>TenantModule&#45;&gt;AppModule</title>
<path fill="none" stroke="black" d="M761.24,-198.11C761.24,-251.74 761.24,-406 761.24,-406 761.24,-406 732.05,-406 732.05,-406"/>
<polygon fill="black" stroke="black" points="732.05,-402.5 722.05,-406 732.05,-409.5 732.05,-402.5"/>
</g>
<!-- ImageService  -->
<g id="node16" class="node">
<title>ImageService </title>
<polygon fill="#fb8072" stroke="black" points="556.46,-274 459.54,-274 459.54,-238 556.46,-238 556.46,-274"/>
<text text-anchor="middle" x="508" y="-251.8" font-family="Times,serif" font-size="14.00">ImageService </text>
</g>
<!-- TenantModule&#45;&gt;ImageService  -->
<g id="edge18" class="edge">
<title>TenantModule&#45;&gt;ImageService </title>
<path fill="none" stroke="black" stroke-dasharray="5,2" d="M757.75,-198.04C757.75,-210.56 757.75,-225 757.75,-225 757.75,-225 496.84,-225 496.84,-225 496.84,-225 496.84,-227.97 496.84,-227.97"/>
<polygon fill="black" stroke="black" points="493.34,-227.97 496.84,-237.97 500.34,-227.97 493.34,-227.97"/>
</g>
<!-- TenantsService  -->
<g id="node17" class="node">
<title>TenantsService </title>
<polygon fill="#fb8072" stroke="black" points="441.79,-274 336.21,-274 336.21,-238 441.79,-238 441.79,-274"/>
<text text-anchor="middle" x="389" y="-251.8" font-family="Times,serif" font-size="14.00">TenantsService </text>
</g>
<!-- TenantModule&#45;&gt;TenantsService  -->
<g id="edge19" class="edge">
<title>TenantModule&#45;&gt;TenantsService </title>
<path fill="none" stroke="black" stroke-dasharray="5,2" d="M754.26,-198.11C754.26,-207.9 754.26,-218 754.26,-218 754.26,-218 389,-218 389,-218 389,-218 389,-227.89 389,-227.89"/>
<polygon fill="black" stroke="black" points="385.5,-227.89 389,-237.89 392.5,-227.89 385.5,-227.89"/>
</g>
<!-- UserModule&#45;&gt;AuthModule -->
<g id="edge8" class="edge">
<title>UserModule&#45;&gt;AuthModule</title>
<path fill="none" stroke="black" d="M827.19,-274.01C827.19,-274.01 827.19,-303.85 827.19,-303.85"/>
<polygon fill="black" stroke="black" points="823.69,-303.85 827.19,-313.85 830.69,-303.85 823.69,-303.85"/>
</g>
<!-- UserModule&#45;&gt;AppModule -->
<g id="edge5" class="edge">
<title>UserModule&#45;&gt;AppModule</title>
<path fill="none" stroke="black" d="M769.67,-256C753.95,-256 739.97,-256 739.97,-256 739.97,-256 739.97,-397 739.97,-397 739.97,-397 731.98,-397 731.98,-397"/>
<polygon fill="black" stroke="black" points="731.98,-393.5 721.98,-397 731.98,-400.5 731.98,-393.5"/>
</g>
<!-- UserModule&#45;&gt;ImageService  -->
<g id="edge25" class="edge">
<title>UserModule&#45;&gt;ImageService </title>
<path fill="none" stroke="black" stroke-dasharray="5,2" d="M794.08,-237.81C794.08,-234.46 794.08,-232 794.08,-232 794.08,-232 526.53,-232 526.53,-232 526.53,-232 526.53,-232.58 526.53,-232.58"/>
<polygon fill="black" stroke="black" points="523.03,-227.81 526.53,-237.81 530.03,-227.81 523.03,-227.81"/>
</g>
<!-- UsersService  -->
<g id="node20" class="node">
<title>UsersService </title>
<polygon fill="#fb8072" stroke="black" points="1387.85,-198 1294.15,-198 1294.15,-162 1387.85,-162 1387.85,-198"/>
<text text-anchor="middle" x="1341" y="-175.8" font-family="Times,serif" font-size="14.00">UsersService </text>
</g>
<!-- UserModule&#45;&gt;UsersService  -->
<g id="edge26" class="edge">
<title>UserModule&#45;&gt;UsersService </title>
<path fill="none" stroke="black" stroke-dasharray="5,2" d="M856.21,-262C982.31,-262 1341,-262 1341,-262 1341,-262 1341,-208.2 1341,-208.2"/>
<polygon fill="black" stroke="black" points="1344.5,-208.2 1341,-198.2 1337.5,-208.2 1344.5,-208.2"/>
</g>
<!-- AuthService -->
<g id="node8" class="node">
<title>AuthService</title>
<ellipse fill="#fdb462" stroke="black" cx="1209" cy="-104" rx="59.11" ry="18"/>
<text text-anchor="middle" x="1209" y="-99.8" font-family="Times,serif" font-size="14.00">AuthService</text>
</g>
<!-- AuthService&#45;&gt;AuthModule -->
<g id="edge10" class="edge">
<title>AuthService&#45;&gt;AuthModule</title>
<path fill="none" stroke="black" d="M1268.56,-104C1274.57,-104 1278.52,-104 1278.52,-104 1278.52,-104 1278.52,-326 1278.52,-326 1278.52,-326 865.89,-326 865.89,-326"/>
<polygon fill="black" stroke="black" points="865.89,-322.5 855.89,-326 865.89,-329.5 865.89,-322.5"/>
</g>
<!-- AuthService&#45;&gt;TenantModule -->
<g id="edge20" class="edge">
<title>AuthService&#45;&gt;TenantModule</title>
<path fill="none" stroke="black" d="M1189.23,-121.12C1189.23,-128.73 1189.23,-136 1189.23,-136 1189.23,-136 792.53,-136 792.53,-136 792.53,-136 792.53,-151.85 792.53,-151.85"/>
<polygon fill="black" stroke="black" points="789.03,-151.85 792.53,-161.85 796.03,-151.85 789.03,-151.85"/>
</g>
<!-- AuthService&#45;&gt;UserModule -->
<g id="edge27" class="edge">
<title>AuthService&#45;&gt;UserModule</title>
<path fill="none" stroke="black" d="M1228.77,-121.01C1228.77,-133.76 1228.77,-149 1228.77,-149 1228.77,-149 850.48,-149 850.48,-149 850.48,-149 850.48,-227.85 850.48,-227.85"/>
<polygon fill="black" stroke="black" points="846.98,-227.85 850.48,-237.85 853.98,-227.85 846.98,-227.85"/>
</g>
<!-- EmailService -->
<g id="node9" class="node">
<title>EmailService</title>
<ellipse fill="#fdb462" stroke="black" cx="1069" cy="-104" rx="63.12" ry="18"/>
<text text-anchor="middle" x="1069" y="-99.8" font-family="Times,serif" font-size="14.00">EmailService</text>
</g>
<!-- EmailService&#45;&gt;AuthModule -->
<g id="edge11" class="edge">
<title>EmailService&#45;&gt;AuthModule</title>
<path fill="none" stroke="black" d="M1036.79,-119.53C1036.79,-169.06 1036.79,-320 1036.79,-320 1036.79,-320 865.61,-320 865.61,-320"/>
<polygon fill="black" stroke="black" points="865.61,-316.5 855.61,-320 865.61,-323.5 865.61,-316.5"/>
</g>
<!-- EmailService&#45;&gt;TenantModule -->
<g id="edge21" class="edge">
<title>EmailService&#45;&gt;TenantModule</title>
<path fill="none" stroke="black" d="M1009.26,-98C942.89,-98 844.97,-98 844.97,-98 844.97,-98 844.97,-174 844.97,-174 844.97,-174 844.72,-174 844.72,-174"/>
<polygon fill="black" stroke="black" points="852.46,-170.5 842.46,-174 852.46,-177.5 852.46,-170.5"/>
</g>
<!-- EmailService&#45;&gt;UserModule -->
<g id="edge28" class="edge">
<title>EmailService&#45;&gt;UserModule</title>
<path fill="none" stroke="black" d="M1009.41,-110C943.87,-110 847.72,-110 847.72,-110 847.72,-110 847.72,-227.8 847.72,-227.8"/>
<polygon fill="black" stroke="black" points="844.22,-227.8 847.72,-237.8 851.22,-227.8 844.22,-227.8"/>
</g>
<!-- GithubAuthStrategy -->
<g id="node10" class="node">
<title>GithubAuthStrategy</title>
<ellipse fill="#fdb462" stroke="black" cx="1376" cy="-104" rx="89.21" ry="18"/>
<text text-anchor="middle" x="1376" y="-99.8" font-family="Times,serif" font-size="14.00">GithubAuthStrategy</text>
</g>
<!-- GithubAuthStrategy&#45;&gt;AuthModule -->
<g id="edge12" class="edge">
<title>GithubAuthStrategy&#45;&gt;AuthModule</title>
<path fill="none" stroke="black" d="M1290.49,-109.64C1290.49,-144.75 1290.49,-332 1290.49,-332 1290.49,-332 865.73,-332 865.73,-332"/>
<polygon fill="black" stroke="black" points="865.73,-328.5 855.73,-332 865.73,-335.5 865.73,-328.5"/>
</g>
<!-- GoogleAuthStrategy -->
<g id="node11" class="node">
<title>GoogleAuthStrategy</title>
<ellipse fill="#fdb462" stroke="black" cx="1574" cy="-104" rx="90.91" ry="18"/>
<text text-anchor="middle" x="1574" y="-99.8" font-family="Times,serif" font-size="14.00">GoogleAuthStrategy</text>
</g>
<!-- GoogleAuthStrategy&#45;&gt;AuthModule -->
<g id="edge13" class="edge">
<title>GoogleAuthStrategy&#45;&gt;AuthModule</title>
<path fill="none" stroke="black" d="M1574,-122.36C1574,-177.52 1574,-338 1574,-338 1574,-338 865.71,-338 865.71,-338"/>
<polygon fill="black" stroke="black" points="865.71,-334.5 855.71,-338 865.71,-341.5 865.71,-334.5"/>
</g>
<!-- PaypalService -->
<g id="node12" class="node">
<title>PaypalService</title>
<ellipse fill="#fdb462" stroke="black" cx="775" cy="-104" rx="66.05" ry="18"/>
<text text-anchor="middle" x="775" y="-99.8" font-family="Times,serif" font-size="14.00">PaypalService</text>
</g>
<!-- PaypalService&#45;&gt;PaypalModule -->
<g id="edge14" class="edge">
<title>PaypalService&#45;&gt;PaypalModule</title>
<path fill="none" stroke="black" d="M717.28,-113.02C717.28,-113.02 717.28,-151.74 717.28,-151.74"/>
<polygon fill="black" stroke="black" points="713.78,-151.74 717.28,-161.74 720.78,-151.74 713.78,-151.74"/>
</g>
<!-- PaypalTransactionService -->
<g id="node13" class="node">
<title>PaypalTransactionService</title>
<ellipse fill="#fdb462" stroke="black" cx="579" cy="-104" rx="111.71" ry="18"/>
<text text-anchor="middle" x="579" y="-99.8" font-family="Times,serif" font-size="14.00">PaypalTransactionService</text>
</g>
<!-- PaypalTransactionService&#45;&gt;PaypalModule -->
<g id="edge15" class="edge">
<title>PaypalTransactionService&#45;&gt;PaypalModule</title>
<path fill="none" stroke="black" d="M659.52,-116.55C659.52,-116.55 659.52,-151.74 659.52,-151.74"/>
<polygon fill="black" stroke="black" points="656.02,-151.74 659.52,-161.74 663.02,-151.74 656.02,-151.74"/>
</g>
<!-- ProjectService -->
<g id="node15" class="node">
<title>ProjectService</title>
<ellipse fill="#fdb462" stroke="black" cx="363" cy="-332" rx="67.19" ry="18"/>
<text text-anchor="middle" x="363" y="-327.8" font-family="Times,serif" font-size="14.00">ProjectService</text>
</g>
<!-- ProjectService&#45;&gt;ProjectsModule -->
<g id="edge17" class="edge">
<title>ProjectService&#45;&gt;ProjectsModule</title>
<path fill="none" stroke="black" d="M383.22,-314.69C383.22,-307.59 383.22,-301 383.22,-301 383.22,-301 631.17,-301 631.17,-301 631.17,-301 631.17,-284.04 631.17,-284.04"/>
<polygon fill="black" stroke="black" points="634.67,-284.04 631.17,-274.04 627.67,-284.04 634.67,-284.04"/>
</g>
<!-- ImageService -->
<g id="node18" class="node">
<title>ImageService</title>
<ellipse fill="#fdb462" stroke="black" cx="248" cy="-256" rx="64.24" ry="18"/>
<text text-anchor="middle" x="248" y="-251.8" font-family="Times,serif" font-size="14.00">ImageService</text>
</g>
<!-- ImageService&#45;&gt;TenantModule -->
<g id="edge22" class="edge">
<title>ImageService&#45;&gt;TenantModule</title>
<path fill="none" stroke="black" d="M248,-237.85C248,-225.73 248,-212 248,-212 248,-212 750.77,-212 750.77,-212 750.77,-212 750.77,-208.24 750.77,-208.24"/>
<polygon fill="black" stroke="black" points="754.27,-208.24 750.77,-198.24 747.27,-208.24 754.27,-208.24"/>
</g>
<!-- ImageService&#45;&gt;UserModule -->
<g id="edge29" class="edge">
<title>ImageService&#45;&gt;UserModule</title>
<path fill="none" stroke="black" d="M303.89,-265.08C303.89,-274.54 303.89,-288 303.89,-288 303.89,-288 798.6,-288 798.6,-288 798.6,-288 798.6,-284.24 798.6,-284.24"/>
<polygon fill="black" stroke="black" points="802.1,-284.24 798.6,-274.24 795.1,-284.24 802.1,-284.24"/>
</g>
<!-- TenantsService -->
<g id="node19" class="node">
<title>TenantsService</title>
<ellipse fill="#fdb462" stroke="black" cx="95" cy="-256" rx="70.62" ry="18"/>
<text text-anchor="middle" x="95" y="-251.8" font-family="Times,serif" font-size="14.00">TenantsService</text>
</g>
<!-- TenantsService&#45;&gt;TenantModule -->
<g id="edge23" class="edge">
<title>TenantsService&#45;&gt;TenantModule</title>
<path fill="none" stroke="black" d="M95,-237.88C95,-223.22 95,-205 95,-205 95,-205 747.28,-205 747.28,-205 747.28,-205 747.28,-204.32 747.28,-204.32"/>
<polygon fill="black" stroke="black" points="750.78,-208.17 747.28,-198.17 743.78,-208.17 750.78,-208.17"/>
</g>
<!-- IndexManagementService -->
<g id="node21" class="node">
<title>IndexManagementService</title>
<ellipse fill="#fdb462" stroke="black" cx="1158" cy="-180" rx="112.28" ry="18"/>
<text text-anchor="middle" x="1158" y="-175.8" font-family="Times,serif" font-size="14.00">IndexManagementService</text>
</g>
<!-- IndexManagementService&#45;&gt;UserModule -->
<g id="edge30" class="edge">
<title>IndexManagementService&#45;&gt;UserModule</title>
<path fill="none" stroke="black" d="M1158,-198.03C1158,-218.77 1158,-250 1158,-250 1158,-250 866,-250 866,-250"/>
<polygon fill="black" stroke="black" points="866,-246.5 856,-250 866,-253.5 866,-246.5"/>
</g>
<!-- UsersService -->
<g id="node22" class="node">
<title>UsersService</title>
<ellipse fill="#fdb462" stroke="black" cx="966" cy="-180" rx="61.95" ry="18"/>
<text text-anchor="middle" x="966" y="-175.8" font-family="Times,serif" font-size="14.00">UsersService</text>
</g>
<!-- UsersService&#45;&gt;UserModule -->
<g id="edge31" class="edge">
<title>UsersService&#45;&gt;UserModule</title>
<path fill="none" stroke="black" d="M907.3,-186C879.9,-186 853.23,-186 853.23,-186 853.23,-186 853.23,-227.97 853.23,-227.97"/>
<polygon fill="black" stroke="black" points="849.73,-227.97 853.23,-237.97 856.73,-227.97 849.73,-227.97"/>
</g>
</g>
</svg>
